<svg width="188" height="120" viewBox="0 0 188 120" fill="none" xmlns="http://www.w3.org/2000/svg">
<path fill-rule="evenodd" clip-rule="evenodd" d="M88.3186 100.967C109.422 112.402 133.558 120.802 157.488 119.156C166.195 118.558 174.255 116.048 182.53 113.552C183.11 113.377 183.441 112.762 183.267 112.179C183.09 111.595 182.474 111.265 181.891 111.442C173.776 113.888 165.876 116.37 157.337 116.956C133.747 118.579 109.967 110.225 89.1836 98.9295L89.3316 98.5957C90.9482 94.9765 89.9468 89.6942 87.3057 84.1506C83.521 76.204 76.4741 67.6652 70.1324 62.9488C67.2823 60.8301 64.5512 59.4834 62.2989 59.2019C60.543 58.9813 59.0367 59.376 57.8728 60.4267C55.3942 62.6673 55.4812 66.4897 57.4461 70.9216C61.553 80.1918 73.6152 92.3992 80.1572 96.3145C82.2004 97.5364 84.2785 98.7379 86.3886 99.9076C86.1216 100.552 85.8574 101.182 85.573 101.783C84.7574 103.492 83.7561 104.987 81.826 106.011C78.8163 107.605 75.2087 107.88 71.5168 107.468C65.7556 106.821 59.7913 104.479 55.4 102.467C30.9446 91.2643 18.8331 71.833 12.3376 52.3262C5.78111 32.6249 4.92201 12.8307 2.98033 1.1545C2.88165 0.553711 2.31279 0.150283 1.712 0.248964C1.11121 0.347644 0.704877 0.916507 0.80646 1.5173C2.75975 13.269 3.64495 33.1909 10.2478 53.0227C16.9117 73.0491 29.3773 92.9709 54.4799 104.473C59.0541 106.569 65.2709 108.986 71.2701 109.66C75.4234 110.124 79.4722 109.752 82.8593 107.959C85.8981 106.348 87.1054 103.834 88.3186 100.967ZM87.2448 97.8614L87.3202 97.696C88.7337 94.5324 87.625 89.9467 85.3147 85.0997C81.678 77.4636 74.9126 69.2528 68.8147 64.7193C66.725 63.1636 64.7253 62.0462 62.9664 61.576C61.5153 61.19 60.2556 61.2452 59.353 62.0636C58.4968 62.8328 58.1572 63.8921 58.1717 65.1256C58.1862 66.5739 58.6681 68.2369 59.4604 70.0277C63.4076 78.9351 75.0026 90.6607 81.2891 94.4221C83.2424 95.5889 85.2276 96.7382 87.2448 97.8614Z" fill="white"/>
<path fill-rule="evenodd" clip-rule="evenodd" d="M185.327 110.139C185.232 110.612 184.909 111.207 184.555 111.843C183.714 113.358 182.515 114.972 181.981 115.755C181.639 116.26 181.772 116.945 182.274 117.288C182.779 117.63 183.464 117.5 183.807 116.995C184.46 116.034 186.053 113.881 186.909 112.096C187.368 111.138 187.606 110.253 187.554 109.617C187.466 108.534 186.61 107.858 184.912 107.899C182.904 107.948 179.174 108.955 176.051 107.745C175.485 107.524 174.844 107.809 174.626 108.375C174.406 108.944 174.687 109.582 175.256 109.803C178.234 110.955 181.705 110.401 184.042 110.168C184.486 110.125 185.014 110.131 185.327 110.139Z" fill="white"/>
</svg>
