<svg width="183" height="123" viewBox="0 0 183 123" fill="none" xmlns="http://www.w3.org/2000/svg">
<g clip-path="url(#clip0_2_1018)">
<rect x="0.30835" y="0.327576" width="183" height="122" fill="#111111"/>
<g clip-path="url(#clip1_2_1018)">
<path d="M158.665 80.5445C157.932 79.8325 156.904 79.5089 155.898 79.6744C154.89 79.8392 154.02 80.4719 153.552 81.3798C151.944 84.5034 149.902 87.3739 147.499 89.9115C147.739 88.0784 147.859 86.2344 147.859 84.3855C147.859 80.8378 147.384 77.1869 146.446 73.5331C143.361 61.5317 135.272 51.3822 124.254 45.6874C123.295 45.1917 122.152 45.2091 121.208 45.7338C120.264 46.2587 119.646 47.2209 119.561 48.2973C118.702 59.2036 113.085 69.126 104.14 75.5266C104.022 75.6119 103.904 75.6983 103.787 75.7842C103.543 75.9623 103.314 76.1307 103.099 76.2721C103.066 76.2945 103.032 76.3172 103 76.3406C97.3744 80.3683 92.7327 85.7373 89.576 91.8687C86.3683 98.1054 84.742 104.798 84.742 111.76C84.742 115.307 85.2174 118.957 86.1552 122.612C91.1041 141.874 108.439 155.327 128.309 155.327C152.331 155.327 171.874 135.783 171.874 111.76C171.874 99.9135 167.183 88.8276 158.665 80.5445Z" fill="white" fill-opacity="0.02"/>
<circle cx="125.308" cy="110.328" r="13" fill="#111111"/>
</g>
<rect x="12.3083" y="87.3276" width="48" height="24" fill="url(#paint0_linear_2_1018)"/>
<path d="M25.5942 101.328L26.0865 100.028H28.2634L28.7558 101.328H29.7096L27.6942 96.1737H26.6942L24.6788 101.328H25.5942ZM26.9019 97.8814L27.1788 96.9506L27.4558 97.8814L27.9788 99.2737H26.3711L26.9019 97.8814ZM31.0639 102.758V100.328C31.187 100.904 31.5024 101.404 32.2485 101.404C33.1716 101.404 33.7562 100.658 33.7562 99.4506C33.7562 98.243 33.1716 97.4968 32.2639 97.4968C31.5178 97.4968 31.187 97.9968 31.0639 98.5814V97.5814H30.2024L30.2024 102.758H31.0639ZM31.0639 99.6814V99.2199C31.0639 98.6045 31.3178 98.1968 31.9255 98.1968C32.4639 98.1968 32.8716 98.6045 32.8716 99.4506C32.8716 100.297 32.4639 100.704 31.9255 100.704C31.3178 100.704 31.0639 100.297 31.0639 99.6814ZM35.3308 102.758V100.328C35.4538 100.904 35.7692 101.404 36.5154 101.404C37.4385 101.404 38.0231 100.658 38.0231 99.4506C38.0231 98.243 37.4385 97.4968 36.5308 97.4968C35.7846 97.4968 35.4538 97.9968 35.3308 98.5814V97.5814H34.4692V102.758H35.3308ZM35.3308 99.6814V99.2199C35.3308 98.6045 35.5846 98.1968 36.1923 98.1968C36.7308 98.1968 37.1385 98.6045 37.1385 99.4506C37.1385 100.297 36.7308 100.704 36.1923 100.704C35.5846 100.704 35.3308 100.297 35.3308 99.6814ZM39.5976 101.328V96.1737H38.7361V101.328H39.5976ZM41.2397 102.612C41.8474 102.612 42.2858 102.343 42.5551 101.589L43.9397 97.5814H42.9858L42.3166 99.7045L42.0474 100.704L41.7781 99.7045L41.1012 97.5814H40.1551L41.3935 101.097H41.9243L41.8551 101.304C41.7166 101.72 41.532 101.851 41.2397 101.851C40.8935 101.851 40.6627 101.635 40.4627 101.351L40.0551 102.043C40.2627 102.335 40.7012 102.612 41.2397 102.612Z" fill="white"/>
<path d="M15.2611 57.443C17.3726 57.443 18.3534 56.3699 18.3534 54.0276V49.5968H17.0611V54.0391C17.0611 55.5737 16.5649 56.1968 15.2726 56.1968C14.0034 56.1968 13.4842 55.5737 13.4842 54.0391V49.5968H12.1918V54.0276C12.1918 56.3699 13.1957 57.443 15.2611 57.443ZM20.4639 57.3276L22.4485 54.166L24.4792 57.3276H26.1177L23.4062 53.4045L25.9446 49.5968H24.3869L22.5062 52.6199L20.66 49.5968H19.01L21.56 53.3353L18.8369 57.3276H20.4639ZM32.2519 57.3276C34.6519 57.3276 35.9327 55.8506 35.9327 53.4622C35.9327 51.0737 34.6404 49.5968 32.2519 49.5968H29.3327V57.3276H32.2519ZM32.0904 50.7506C33.6943 50.7506 34.5712 51.5237 34.5712 53.4622C34.5712 55.4006 33.6943 56.1737 32.1019 56.1737H30.6366V50.7506H32.0904ZM39.6544 57.443C40.9006 57.443 41.6621 56.8776 42.089 56.2314L41.2929 55.4006C41.0852 55.8737 40.6467 56.3814 39.666 56.3814C38.7775 56.3814 38.189 55.8391 38.1198 54.8353H42.1352C42.1583 54.7199 42.1814 54.4776 42.1814 54.2699C42.1814 52.7122 41.2467 51.5929 39.5621 51.5929C37.9813 51.5929 36.8852 52.7583 36.8852 54.5237C36.8852 56.2776 37.9813 57.443 39.6544 57.443ZM39.5621 52.6314C40.416 52.6314 40.9237 53.116 41.016 54.0045H38.1313C38.2352 53.093 38.766 52.6314 39.5621 52.6314ZM45.5323 57.443C46.7208 57.443 47.6554 56.8891 47.6554 55.7814C47.6554 54.9737 47.1938 54.466 45.9361 54.143L45.2554 53.9699C44.4938 53.7737 44.1938 53.6237 44.1938 53.2199C44.1938 52.8391 44.5284 52.6314 45.0246 52.6314C45.7515 52.6314 46.3515 53.0006 46.7438 53.6237L47.5054 52.816C47.1592 52.1814 46.3169 51.6045 45.1169 51.6045C43.8246 51.6045 42.9823 52.2391 42.9823 53.2891C42.9823 54.316 43.8015 54.7083 44.69 54.916L45.44 55.1006C46.0631 55.2506 46.49 55.3891 46.49 55.8045C46.49 56.2083 46.1323 56.4045 45.5784 56.4045C44.5746 56.4045 43.8823 55.8276 43.5707 55.2622L42.8092 56.0699C43.2361 56.9583 44.3323 57.443 45.5323 57.443ZM49.9704 50.9122V49.5968H48.6781V50.9122H49.9704ZM49.9704 57.3276V51.7083H48.6781V57.3276H49.9704ZM53.6566 55.643C55.0412 55.643 55.9758 54.8122 55.9758 53.6237C55.9758 52.9199 55.6527 52.343 55.0989 51.9853L56.1489 50.8314L54.9027 50.4045L54.6258 51.7545C54.3373 51.6506 54.0142 51.5929 53.6566 51.5929C52.2719 51.5929 51.3258 52.4353 51.3258 53.6237C51.3258 54.3391 51.6719 54.9276 52.2373 55.2737C51.7181 55.6314 51.2796 56.1276 51.2796 56.6353C51.2796 57.0622 51.545 57.3276 51.9489 57.443C51.4065 57.5699 50.8989 57.8583 50.8989 58.3891C50.8989 59.093 51.8104 59.5891 53.3796 59.5891C55.4219 59.5891 56.4604 58.7814 56.4604 57.7199C56.4604 56.8776 55.8489 56.4276 54.7296 56.4276H52.9181C52.3989 56.4276 52.2489 56.2776 52.2489 55.9891C52.2489 55.793 52.3758 55.5737 52.4796 55.4006C52.8142 55.5622 53.2181 55.643 53.6566 55.643ZM53.6566 54.7199C53.045 54.7199 52.5604 54.3276 52.5604 53.6237C52.5604 52.9199 53.045 52.5276 53.6566 52.5276C54.2681 52.5276 54.7527 52.9199 54.7527 53.6237C54.7527 54.3276 54.2681 54.7199 53.6566 54.7199ZM53.4373 58.6199C52.4104 58.6199 51.9489 58.3776 51.9489 57.9622C51.9489 57.766 52.0873 57.5814 52.2142 57.4545H54.5566C55.0527 57.4545 55.295 57.5814 55.295 57.8814C55.295 58.3545 54.6489 58.6199 53.4373 58.6199ZM58.5228 57.3276V54.1776C58.5228 53.2545 58.8459 52.643 59.7921 52.643C60.6574 52.643 60.8882 53.116 60.8882 53.8083V57.3276H62.1921V53.416C62.1921 52.2506 61.5228 51.5929 60.4267 51.5929C59.3074 51.5929 58.7305 52.3545 58.5228 53.243V51.7083H57.2305V57.3276H58.5228ZM65.9879 57.443C67.234 57.443 67.9956 56.8776 68.4225 56.2314L67.6263 55.4006C67.4186 55.8737 66.9802 56.3814 65.9994 56.3814C65.1109 56.3814 64.5225 55.8391 64.4532 54.8353H68.4686C68.4917 54.7199 68.5148 54.4776 68.5148 54.2699C68.5148 52.7122 67.5802 51.5929 65.8955 51.5929C64.3148 51.5929 63.2186 52.7583 63.2186 54.5237C63.2186 56.2776 64.3148 57.443 65.9879 57.443ZM65.8955 52.6314C66.7494 52.6314 67.2571 53.116 67.3494 54.0045H64.4648C64.5686 53.093 65.0994 52.6314 65.8955 52.6314ZM70.9402 57.3276V54.2353C70.9402 53.3006 71.5402 52.5622 72.1864 52.5622C72.5671 52.5622 72.7171 52.816 72.7171 53.1276C72.7171 53.4506 72.5441 53.8199 72.3594 54.0045H73.6864C73.7902 53.8314 73.9402 53.4276 73.9402 52.8853C73.9402 52.0545 73.421 51.5929 72.7171 51.5929C71.7133 51.5929 71.1479 52.4006 70.9402 53.3006V51.7083H69.6479V57.3276H70.9402Z" fill="white"/>
<path d="M12.2019 72.3276L12.825 70.743H15.1404L15.7635 72.3276H16.325L14.2558 67.1737H13.7404L11.6712 72.3276H12.2019ZM13.7173 68.4891L13.9866 67.6891L14.2558 68.4891L14.9635 70.2968H13.0019L13.7173 68.4891ZM18.0988 72.4122C18.8295 72.4122 19.2219 71.9045 19.3372 71.3199V72.3276H19.8372V67.1737H19.3372V69.6506C19.2219 69.066 18.8295 68.5583 18.0988 68.5583C17.1372 68.5583 16.5603 69.3199 16.5603 70.4814C16.5603 71.6507 17.1372 72.4122 18.0988 72.4122ZM17.0757 70.4814C17.0757 69.4506 17.5834 68.9814 18.2526 68.9814C18.9988 68.9814 19.3372 69.5199 19.3372 70.1353V70.8276C19.3372 71.443 18.9988 71.9891 18.2526 71.9891C17.5834 71.9891 17.0757 71.5199 17.0757 70.4814ZM22.4764 72.3276L23.8687 68.6353H23.3302L22.5302 70.8814L22.1764 71.943L21.8071 70.8814L21.0071 68.6353H20.4533L21.8456 72.3276H22.4764ZM25.7872 72.4045C26.8026 72.4045 27.518 71.6507 27.518 70.4814C27.518 69.3122 26.8026 68.5583 25.7872 68.5583C24.7718 68.5583 24.0641 69.3122 24.0641 70.4814C24.0641 71.6507 24.7718 72.4045 25.7872 72.4045ZM25.7872 71.9737C25.0641 71.9737 24.5718 71.4583 24.5718 70.4814C24.5718 69.4968 25.0641 68.9737 25.7872 68.9737C26.518 68.9737 27.0103 69.4968 27.0103 70.4814C27.0103 71.4583 26.518 71.9737 25.7872 71.9737ZM28.927 67.9737V67.1737H28.4193V67.9737H28.927ZM28.927 72.3276V68.6353H28.4193V72.3276H28.927ZM31.2121 72.4122C31.689 72.4122 32.0505 72.1891 32.2121 71.9199L32.0352 71.4276C31.9121 71.6891 31.6428 71.9276 31.3121 71.9276C30.989 71.9276 30.7121 71.7814 30.7121 71.2507V69.0276H31.9505V68.6353H30.7121V67.7276L30.2121 68.1045V68.6353H29.6121V69.0276H30.2121V71.3891C30.2121 72.0583 30.6505 72.4122 31.2121 72.4122ZM36.296 72.3276C37.9191 72.3276 38.7191 71.3814 38.7191 69.7506C38.7191 68.1199 37.9191 67.1737 36.296 67.1737H34.596V72.3276H36.296ZM36.2268 67.6199C37.5037 67.6199 38.2037 68.2583 38.2037 69.7506C38.2037 71.243 37.5037 71.8814 36.2268 71.8814H35.1037V67.6199H36.2268ZM40.15 67.9737V67.1737H39.6423V67.9737H40.15ZM40.15 72.3276V68.6353H39.6423V72.3276H40.15ZM42.6581 71.1891C43.5197 71.1891 44.0889 70.643 44.0889 69.8737C44.0889 69.4199 43.8889 69.043 43.5427 68.8045L44.2043 68.0122L43.6735 67.8122L43.3735 68.7045C43.1658 68.6122 42.9274 68.5583 42.6581 68.5583C41.8043 68.5583 41.2274 69.1045 41.2274 69.8737C41.2274 70.343 41.4427 70.7276 41.7966 70.9583C41.4889 71.1968 41.2581 71.5045 41.2581 71.8045C41.2581 72.0276 41.3812 72.2045 41.6351 72.2737C41.3427 72.3891 40.9735 72.6276 40.9735 73.0122C40.9735 73.5199 41.5581 73.8353 42.4966 73.8353C43.6812 73.8353 44.3889 73.343 44.3889 72.6583C44.3889 72.1199 43.9889 71.8583 43.3427 71.8583H42.1966C41.7966 71.8583 41.6735 71.7353 41.6735 71.5276C41.6735 71.3507 41.7889 71.1583 41.9043 71.0199C42.1197 71.1276 42.3735 71.1891 42.6581 71.1891ZM42.6581 70.7968C42.112 70.7968 41.7197 70.4353 41.7197 69.8737C41.7197 69.3122 42.112 68.9506 42.6581 68.9506C43.212 68.9506 43.6043 69.3122 43.6043 69.8737C43.6043 70.4353 43.212 70.7968 42.6581 70.7968ZM42.4966 73.4353C41.7966 73.4353 41.3889 73.2276 41.3889 72.866C41.3889 72.6276 41.5889 72.4122 41.7735 72.2968H43.2735C43.712 72.2968 43.9197 72.4276 43.9197 72.7199C43.9197 73.143 43.3889 73.4353 42.4966 73.4353ZM45.6038 67.9737V67.1737H45.0961V67.9737H45.6038ZM45.6038 72.3276V68.6353H45.0961V72.3276H45.6038ZM47.8888 72.4122C48.3657 72.4122 48.7273 72.1891 48.8888 71.9199L48.7119 71.4276C48.5888 71.6891 48.3196 71.9276 47.9888 71.9276C47.6657 71.9276 47.3888 71.7814 47.3888 71.2507V69.0276H48.6273V68.6353H47.3888V67.7276L46.8888 68.1045V68.6353H46.2888V69.0276H46.8888V71.3891C46.8888 72.0583 47.3273 72.4122 47.8888 72.4122ZM50.1761 72.4045C50.9146 72.4045 51.3915 71.8353 51.5146 71.3045V71.6968C51.5146 72.166 51.7607 72.3276 52.13 72.3276H52.4761V71.8737H52.2607C52.0838 71.8737 51.9992 71.8045 51.9992 71.6122V69.8814C51.9992 69.0583 51.553 68.5583 50.6915 68.5583C49.9069 68.5583 49.3684 68.9968 49.1377 69.3814L49.4915 69.7353C49.6838 69.3276 50.0838 69.0122 50.6377 69.0122C51.2377 69.0122 51.4992 69.3353 51.4992 69.8891V69.9199L50.0992 70.5583C49.5838 70.7891 49.2223 71.0968 49.2223 71.5814C49.2223 72.0737 49.5684 72.4045 50.1761 72.4045ZM49.73 71.5122C49.73 71.2353 49.9146 71.0507 50.3146 70.866L51.5146 70.2968V70.9506C51.5146 71.4507 51.0069 71.9814 50.3223 71.9814C49.9607 71.9814 49.73 71.8199 49.73 71.5122ZM53.7994 72.3276V67.1737H53.2917V72.3276H53.7994ZM56.6131 72.3276L57.2362 70.743H59.5516L60.1746 72.3276H60.7362L58.6669 67.1737H58.1516L56.0823 72.3276H56.6131ZM58.1285 68.4891L58.3977 67.6891L58.6669 68.4891L59.3746 70.2968H57.4131L58.1285 68.4891ZM62.6326 71.1891C63.4942 71.1891 64.0634 70.643 64.0634 69.8737C64.0634 69.4199 63.8634 69.043 63.5172 68.8045L64.1788 68.0122L63.648 67.8122L63.348 68.7045C63.1403 68.6122 62.9019 68.5583 62.6326 68.5583C61.7788 68.5583 61.2019 69.1045 61.2019 69.8737C61.2019 70.343 61.4172 70.7276 61.7711 70.9583C61.4634 71.1968 61.2326 71.5045 61.2326 71.8045C61.2326 72.0276 61.3557 72.2045 61.6096 72.2737C61.3172 72.3891 60.948 72.6276 60.948 73.0122C60.948 73.5199 61.5326 73.8353 62.4711 73.8353C63.6557 73.8353 64.3634 73.343 64.3634 72.6583C64.3634 72.1199 63.9634 71.8583 63.3172 71.8583H62.1711C61.7711 71.8583 61.648 71.7353 61.648 71.5276C61.648 71.3507 61.7634 71.1583 61.8788 71.0199C62.0942 71.1276 62.348 71.1891 62.6326 71.1891ZM62.6326 70.7968C62.0865 70.7968 61.6942 70.4353 61.6942 69.8737C61.6942 69.3122 62.0865 68.9506 62.6326 68.9506C63.1865 68.9506 63.5788 69.3122 63.5788 69.8737C63.5788 70.4353 63.1865 70.7968 62.6326 70.7968ZM62.4711 73.4353C61.7711 73.4353 61.3634 73.2276 61.3634 72.866C61.3634 72.6276 61.5634 72.4122 61.748 72.2968H63.248C63.6865 72.2968 63.8942 72.4276 63.8942 72.7199C63.8942 73.143 63.3634 73.4353 62.4711 73.4353ZM66.5641 72.4045C67.3487 72.4045 67.8411 72.0276 68.1026 71.5737L67.7949 71.2122C67.6334 71.5737 67.3103 71.9814 66.5641 71.9814C65.8334 71.9814 65.3334 71.5199 65.3026 70.5968H68.118C68.1257 70.5353 68.1411 70.443 68.1411 70.3506C68.1411 69.2353 67.5103 68.5583 66.5026 68.5583C65.5026 68.5583 64.818 69.2814 64.818 70.4814C64.818 71.7045 65.5334 72.4045 66.5641 72.4045ZM66.5026 68.9737C67.1795 68.9737 67.6334 69.3968 67.6795 70.2276H65.3103C65.3795 69.3968 65.8257 68.9737 66.5026 68.9737ZM69.5371 72.3276V70.1891C69.5371 69.5506 69.8525 68.9814 70.6294 68.9814C71.2679 68.9814 71.5448 69.3506 71.5448 69.9506V72.3276H72.0525V69.8353C72.0525 68.9891 71.5602 68.5583 70.8294 68.5583C70.0909 68.5583 69.6679 69.066 69.5371 69.666V68.6353H69.0294V72.3276H69.5371ZM74.5936 72.4045C75.5167 72.4045 76.0936 71.866 76.2397 71.1199L75.7551 70.9122C75.6782 71.5353 75.309 71.9814 74.6013 71.9814C73.8705 71.9814 73.3859 71.4583 73.3859 70.4814C73.3859 69.4968 73.8705 68.9737 74.6013 68.9737C75.309 68.9737 75.6782 69.4276 75.7551 70.0506L76.2397 69.843C76.0936 69.0968 75.5167 68.5583 74.6013 68.5583C73.5551 68.5583 72.8705 69.2814 72.8705 70.4814C72.8705 71.6814 73.5551 72.4045 74.5936 72.4045ZM77.3249 73.6276C77.8249 73.6276 78.1865 73.3583 78.4018 72.766L79.9634 68.6353H79.4326L78.5095 71.166L78.2403 71.9276L77.9788 71.166L77.048 68.6353H76.5095L77.8634 72.2045L78.148 72.1968L78.0095 72.566C77.848 73.0199 77.6326 73.1814 77.3326 73.1814C76.9941 73.1814 76.7864 72.9737 76.6326 72.6737L76.348 73.043C76.4864 73.3199 76.8249 73.6276 77.3249 73.6276Z" fill="white"/>
<rect x="12.3083" y="12.3276" width="48" height="24" stroke="white" stroke-width="0.48077"/>
<path d="M22.4769 26.3276V24.1276H24.8769V23.6814H22.4769V21.6199H25.3769V21.1737H21.9692V26.3276H22.4769ZM27.0358 26.4045C27.7973 26.4045 28.2127 25.8891 28.3435 25.2737V26.3276H28.8435V22.6353H28.3435V24.766C28.3435 25.4122 28.0358 25.9737 27.2358 25.9737C26.605 25.9737 26.3281 25.6045 26.3281 25.0122V22.6353H25.8281V25.1199C25.8281 25.9737 26.3127 26.4045 27.0358 26.4045ZM30.4304 26.3276V21.1737H29.9227V26.3276H30.4304ZM32.0154 26.3276V21.1737H31.5077V26.3276H32.0154ZM34.3004 26.4122C34.7774 26.4122 35.1389 26.1891 35.3004 25.9199L35.1235 25.4276C35.0004 25.6891 34.7312 25.9276 34.4004 25.9276C34.0774 25.9276 33.8004 25.7814 33.8004 25.2507V23.0276H35.0389V22.6353H33.8004V21.7276L33.3004 22.1045V22.6353H32.7004V23.0276H33.3004V25.3891C33.3004 26.0583 33.7389 26.4122 34.3004 26.4122ZM36.4926 21.9737V21.1737H35.9849V21.9737H36.4926ZM36.4926 26.3276V22.6353H35.9849V26.3276H36.4926ZM38.0776 26.3276V24.1891C38.0776 23.5506 38.393 22.9814 39.0469 22.9814C39.6238 22.9814 39.9084 23.2968 39.9084 23.943V26.3276H40.4084V24.1891C40.4084 23.5506 40.7238 22.9814 41.3853 22.9814C41.9545 22.9814 42.2392 23.2968 42.2392 23.943V26.3276H42.7469V23.8276C42.7469 22.9814 42.3469 22.5583 41.6392 22.5583C40.9469 22.5583 40.5238 23.0737 40.4007 23.6814C40.3622 22.9353 39.9699 22.5583 39.3007 22.5583C38.6161 22.5583 38.2084 23.0583 38.0776 23.666V22.6353H37.5699V26.3276H38.0776ZM45.321 26.4045C46.1056 26.4045 46.5979 26.0276 46.8595 25.5737L46.5518 25.2122C46.3903 25.5737 46.0672 25.9814 45.321 25.9814C44.5902 25.9814 44.0902 25.5199 44.0595 24.5968H46.8749C46.8826 24.5353 46.8979 24.443 46.8979 24.3506C46.8979 23.2353 46.2672 22.5583 45.2595 22.5583C44.2595 22.5583 43.5749 23.2814 43.5749 24.4814C43.5749 25.7045 44.2902 26.4045 45.321 26.4045ZM45.2595 22.9737C45.9364 22.9737 46.3903 23.3968 46.4364 24.2276H44.0672C44.1364 23.3968 44.5826 22.9737 45.2595 22.9737Z" fill="white"/>
<rect x="67.3083" y="12.3276" width="48" height="24" stroke="white" stroke-width="0.48077"/>
<path d="M82.4195 26.4045C83.881 26.4045 84.8656 25.243 84.8656 23.743C84.8656 22.2583 83.881 21.0968 82.4195 21.0968C80.9579 21.0968 79.9733 22.2583 79.9733 23.743C79.9733 25.243 80.9579 26.4045 82.4195 26.4045ZM82.4271 25.9276C81.2041 25.9276 80.5041 25.0045 80.5041 23.743C80.5041 22.4968 81.2041 21.566 82.4271 21.566C83.6425 21.566 84.3425 22.4968 84.3425 23.743C84.3425 25.0045 83.6425 25.9276 82.4271 25.9276ZM86.344 26.3276V24.1891C86.344 23.5506 86.6594 22.9814 87.4363 22.9814C88.0748 22.9814 88.3517 23.3506 88.3517 23.9506V26.3276H88.8594V23.8353C88.8594 22.9891 88.3671 22.5583 87.6363 22.5583C86.8978 22.5583 86.4747 23.066 86.344 23.666V22.6353H85.8363V26.3276H86.344ZM91.2105 26.4045C91.8951 26.4045 92.4951 26.0891 92.4951 25.3814C92.4951 24.8583 92.1874 24.543 91.4182 24.3506L90.9259 24.2276C90.3874 24.0968 90.1105 23.9583 90.1105 23.5737C90.1105 23.1891 90.4259 22.9814 90.8721 22.9814C91.449 22.9814 91.8336 23.2583 92.0028 23.7583L92.3874 23.4737C92.2028 22.9506 91.6874 22.5583 90.9028 22.5583C90.1413 22.5583 89.6336 22.9583 89.6336 23.5968C89.6336 24.2583 90.1797 24.5045 90.7105 24.6353L91.2105 24.7506C91.7105 24.866 92.0413 25.0045 92.0413 25.3891C92.0413 25.7737 91.7182 25.9737 91.2259 25.9737C90.4797 25.9737 90.0182 25.5583 89.9028 25.0583L89.5259 25.343C89.749 26.066 90.4567 26.4045 91.2105 26.4045ZM93.856 21.9737V21.1737H93.3483V21.9737H93.856ZM93.856 26.3276V22.6353H93.3483V26.3276H93.856ZM96.1411 26.4122C96.618 26.4122 96.9795 26.1891 97.1411 25.9199L96.9641 25.4276C96.8411 25.6891 96.5718 25.9276 96.2411 25.9276C95.918 25.9276 95.6411 25.7814 95.6411 25.2507V23.0276H96.8795V22.6353H95.6411V21.7276L95.1411 22.1045V22.6353H94.541V23.0276H95.1411V25.3891C95.1411 26.0583 95.5795 26.4122 96.1411 26.4122ZM99.0862 26.4045C99.8708 26.4045 100.363 26.0276 100.625 25.5737L100.317 25.2122C100.155 25.5737 99.8323 25.9814 99.0862 25.9814C98.3554 25.9814 97.8554 25.5199 97.8247 24.5968H100.64C100.648 24.5353 100.663 24.443 100.663 24.3506C100.663 23.2353 100.032 22.5583 99.0247 22.5583C98.0247 22.5583 97.34 23.2814 97.34 24.4814C97.34 25.7045 98.0554 26.4045 99.0862 26.4045ZM99.0247 22.9737C99.7016 22.9737 100.155 23.3968 100.202 24.2276H97.8323C97.9016 23.3968 98.3477 22.9737 99.0247 22.9737Z" fill="white"/>
<rect x="123.308" y="12.3276" width="48" height="24" stroke="white" stroke-width="0.48077"/>
<path d="M137.262 27.0968V26.3968C138.147 26.3507 138.831 25.866 138.831 25.0045C138.831 24.0583 138.116 23.7506 137.324 23.566L137.262 23.5506L137.262 21.6353C137.77 21.7506 138.147 22.0814 138.331 22.643L138.754 22.3045C138.508 21.6583 137.977 21.2583 137.262 21.143V20.4045H136.862V21.1045C136.839 21.1045 136.824 21.1045 136.8 21.1045C135.931 21.1045 135.139 21.5891 135.139 22.5045C135.139 23.4045 135.831 23.7199 136.554 23.8891L136.862 23.9583V25.9122C136.247 25.8353 135.593 25.4891 135.377 24.7199L134.985 25.0583C135.285 25.9199 136.039 26.3122 136.862 26.3814V27.0968H137.262ZM136.716 23.4199C136.047 23.2583 135.67 23.0276 135.67 22.466C135.67 21.9045 136.17 21.5814 136.793 21.5814C136.816 21.5814 136.839 21.5814 136.862 21.5814V23.4583L136.716 23.4199ZM138.324 25.0199C138.324 25.6276 137.839 25.8891 137.262 25.9276V24.0506C137.954 24.2276 138.324 24.4506 138.324 25.0199ZM143.304 26.3276V25.8814L141.112 25.8814L140.466 25.9122L140.989 25.4583L141.996 24.4814C142.458 24.0353 143.196 23.3199 143.196 22.4891C143.196 21.7045 142.735 21.0968 141.735 21.0968C140.558 21.0968 139.827 21.9122 139.935 22.9276L140.404 23.2276C140.273 22.1968 140.766 21.5814 141.704 21.5814C142.404 21.5814 142.681 22.043 142.681 22.5199C142.681 23.1276 142.227 23.6199 141.696 24.1506L139.904 25.9353V26.3276H143.304ZM146.024 26.4045C147.409 26.4045 148.062 25.243 148.062 23.743C148.062 22.2583 147.409 21.0968 146.024 21.0968C144.639 21.0968 143.993 22.2583 143.993 23.743C143.993 25.243 144.639 26.4045 146.024 26.4045ZM146.032 25.9276C144.939 25.9276 144.516 24.9968 144.516 23.743C144.516 22.5045 144.939 21.566 146.032 21.566C147.124 21.566 147.539 22.5045 147.539 23.743C147.539 24.9968 147.124 25.9276 146.032 25.9276ZM150.877 26.4045C152.261 26.4045 152.915 25.243 152.915 23.743C152.915 22.2583 152.261 21.0968 150.877 21.0968C149.492 21.0968 148.846 22.2583 148.846 23.743C148.846 25.243 149.492 26.4045 150.877 26.4045ZM150.884 25.9276C149.792 25.9276 149.369 24.9968 149.369 23.743C149.369 22.5045 149.792 21.566 150.884 21.566C151.977 21.566 152.392 22.5045 152.392 23.743C152.392 24.9968 151.977 25.9276 150.884 25.9276ZM154.444 26.3276V24.643L155.475 23.5506L157.321 26.3276H157.944L155.836 23.1891L157.767 21.1737H157.129L155.082 23.3353L154.421 24.043L154.444 23.1891V21.1737H153.936V26.3276H154.444Z" fill="white"/>
<path d="M138.861 101.328V100.558H136.884L136.115 100.635L136.715 100.189L137.43 99.5583C137.976 99.1045 138.715 98.3891 138.715 97.5583C138.715 96.7122 138.207 96.0968 137.168 96.0968C135.984 96.0968 135.145 96.8506 135.168 97.8814L135.899 98.4045C135.853 97.4122 136.33 96.9276 137.091 96.9276C137.591 96.9276 137.807 97.243 137.807 97.6122C137.807 98.0968 137.453 98.4891 136.953 98.9737L135.176 100.666V101.328H138.861ZM142.747 101.328V100.166H143.617V99.4122H142.747V96.1737H141.832L139.309 99.4968V100.166H141.886V101.328H142.747ZM140.263 99.4122L141.886 97.2968V99.4122H140.263ZM146.355 101.328L146.848 100.028H149.025L149.517 101.328H150.471L148.455 96.1737H147.455L145.44 101.328H146.355ZM147.663 97.8814L147.94 96.9506L148.217 97.8814L148.74 99.2737H147.132L147.663 97.8814ZM151.825 102.758V100.328C151.948 100.904 152.264 101.404 153.01 101.404C153.933 101.404 154.517 100.658 154.517 99.4506C154.517 98.243 153.933 97.4968 153.025 97.4968C152.279 97.4968 151.948 97.9968 151.825 98.5814V97.5814H150.964V102.758H151.825ZM151.825 99.6814V99.2199C151.825 98.6045 152.079 98.1968 152.687 98.1968C153.225 98.1968 153.633 98.6045 153.633 99.4506C153.633 100.297 153.225 100.704 152.687 100.704C152.079 100.704 151.825 100.297 151.825 99.6814ZM156.092 102.758V100.328C156.215 100.904 156.53 101.404 157.277 101.404C158.2 101.404 158.784 100.658 158.784 99.4506C158.784 98.243 158.2 97.4968 157.292 97.4968C156.546 97.4968 156.215 97.9968 156.092 98.5814V97.5814H155.23V102.758H156.092ZM156.092 99.6814V99.2199C156.092 98.6045 156.346 98.1968 156.953 98.1968C157.492 98.1968 157.9 98.6045 157.9 99.4506C157.9 100.297 157.492 100.704 156.953 100.704C156.346 100.704 156.092 100.297 156.092 99.6814ZM160.359 101.328V96.1737H159.497V101.328H160.359ZM162.132 97.0506V96.1737H161.27V97.0506H162.132ZM162.132 101.328V97.5814H161.27V101.328H162.132ZM164.704 101.404C165.535 101.404 166.043 101.028 166.327 100.597L165.797 100.043C165.658 100.358 165.366 100.697 164.712 100.697C164.12 100.697 163.727 100.335 163.681 99.666H166.358C166.374 99.5891 166.389 99.4276 166.389 99.2891C166.389 98.2506 165.766 97.5045 164.643 97.5045C163.589 97.5045 162.858 98.2814 162.858 99.4583C162.858 100.628 163.589 101.404 164.704 101.404ZM164.643 98.1968C165.212 98.1968 165.551 98.5199 165.612 99.1122H163.689C163.758 98.5045 164.112 98.1968 164.643 98.1968ZM168.52 101.412C169.266 101.412 169.581 100.912 169.704 100.335V101.328H170.566V96.1737H169.704V98.5891C169.581 98.0045 169.25 97.5045 168.504 97.5045C167.596 97.5045 167.012 98.2506 167.012 99.4583C167.012 100.666 167.596 101.412 168.52 101.412ZM167.896 99.4583C167.896 98.6199 168.304 98.2045 168.843 98.2045C169.45 98.2045 169.704 98.6122 169.704 99.2276V99.6968C169.704 100.312 169.45 100.712 168.85 100.712C168.304 100.712 167.896 100.304 167.896 99.4583Z" fill="white"/>
<path d="M129.308 96.9076C129.278 96.9026 129.243 96.9026 129.213 96.9076C128.523 96.8826 127.973 96.3176 127.973 95.6176C127.973 94.9026 128.548 94.3276 129.263 94.3276C129.978 94.3276 130.553 94.9076 130.553 95.6176C130.548 96.3176 129.998 96.8826 129.308 96.9076Z" stroke="white" stroke-width="0.721155" stroke-linecap="round" stroke-linejoin="round"/>
<path d="M128.793 100.548C129.478 100.663 130.233 100.543 130.763 100.188C131.468 99.7176 131.468 98.9476 130.763 98.4776C130.228 98.1226 129.463 98.0026 128.778 98.1226" stroke="white" stroke-width="0.721155" stroke-linecap="round" stroke-linejoin="round"/>
<path d="M123.293 96.9076C123.323 96.9026 123.358 96.9026 123.388 96.9076C124.078 96.8826 124.628 96.3176 124.628 95.6176C124.628 94.9026 124.053 94.3276 123.338 94.3276C122.623 94.3276 122.048 94.9076 122.048 95.6176C122.053 96.3176 122.603 96.8826 123.293 96.9076Z" stroke="white" stroke-width="0.721155" stroke-linecap="round" stroke-linejoin="round"/>
<path d="M123.808 100.548C123.123 100.663 122.368 100.543 121.838 100.188C121.133 99.7176 121.133 98.9476 121.838 98.4776C122.373 98.1226 123.138 98.0026 123.823 98.1226" stroke="white" stroke-width="0.721155" stroke-linecap="round" stroke-linejoin="round"/>
<path d="M126.308 100.643C126.278 100.638 126.243 100.638 126.213 100.643C125.523 100.618 124.973 100.053 124.973 99.3526C124.973 98.6376 125.548 98.0626 126.263 98.0626C126.978 98.0626 127.553 98.6426 127.553 99.3526C127.548 100.053 126.998 100.623 126.308 100.643Z" stroke="white" stroke-width="0.721155" stroke-linecap="round" stroke-linejoin="round"/>
<path d="M124.853 102.218C124.148 102.688 124.148 103.458 124.853 103.928C125.653 104.463 126.963 104.463 127.763 103.928C128.468 103.458 128.468 102.688 127.763 102.218C126.968 101.688 125.653 101.688 124.853 102.218Z" stroke="white" stroke-width="0.721155" stroke-linecap="round" stroke-linejoin="round"/>
</g>
<defs>
<linearGradient id="paint0_linear_2_1018" x1="36.3083" y1="87.3276" x2="36.3083" y2="111.328" gradientUnits="userSpaceOnUse">
<stop stop-color="#CE9FFC"/>
<stop offset="0.505208" stop-color="#A582F7"/>
<stop offset="1" stop-color="#7367F0"/>
</linearGradient>
<clipPath id="clip0_2_1018">
<rect width="182" height="122" fill="white" transform="translate(0.30835 0.327576)"/>
</clipPath>
<clipPath id="clip1_2_1018">
<rect width="110" height="110" fill="white" transform="translate(73.3083 45.3276)"/>
</clipPath>
</defs>
</svg>
