<svg width="215" height="144" viewBox="0 0 215 144" fill="none" xmlns="http://www.w3.org/2000/svg">
<g clip-path="url(#clip0_107_173)">
<rect x="0.414673" y="0.920807" width="214.052" height="143.077" fill="#111111"/>
<rect x="13.9337" y="102.314" width="56.3294" height="28.1647" fill="url(#paint0_linear_107_173)"/>
<path d="M31.5335 118.763L32.1103 117.24H34.6609L35.2377 118.763H36.3553L33.994 112.725H32.8223L30.461 118.763H31.5335ZM33.0657 114.725L33.3901 113.635L33.7146 114.725L34.3274 116.357H32.4438L33.0657 114.725ZM37.9421 120.439V117.591C38.0863 118.267 38.4558 118.853 39.33 118.853C40.4116 118.853 41.0965 117.979 41.0965 116.564C41.0965 115.149 40.4116 114.275 39.3481 114.275C38.4738 114.275 38.0863 114.861 37.9421 115.546V114.374H36.9327V120.439H37.9421ZM37.9421 116.834V116.294C37.9421 115.573 38.2395 115.095 38.9515 115.095C39.5824 115.095 40.0601 115.573 40.0601 116.564C40.0601 117.555 39.5824 118.033 38.9515 118.033C38.2395 118.033 37.9421 117.555 37.9421 116.834ZM42.9413 120.439V117.591C43.0855 118.267 43.455 118.853 44.3293 118.853C45.4108 118.853 46.0958 117.979 46.0958 116.564C46.0958 115.149 45.4108 114.275 44.3473 114.275C43.4731 114.275 43.0855 114.861 42.9413 115.546V114.374H41.9319V120.439H42.9413ZM42.9413 116.834V116.294C42.9413 115.573 43.2387 115.095 43.9507 115.095C44.5816 115.095 45.0593 115.573 45.0593 116.564C45.0593 117.555 44.5816 118.033 43.9507 118.033C43.2387 118.033 42.9413 117.555 42.9413 116.834ZM47.9406 118.763V112.725H46.9311V118.763H47.9406ZM49.8645 120.268C50.5765 120.268 51.0902 119.953 51.4057 119.07L53.0279 114.374H51.9104L51.1263 116.861L50.8108 118.033L50.4954 116.861L49.7023 114.374H48.5937L50.0447 118.493H50.6666L50.5855 118.736C50.4233 119.223 50.207 119.376 49.8645 119.376C49.4589 119.376 49.1885 119.124 48.9542 118.79L48.4765 119.601C48.7199 119.944 49.2336 120.268 49.8645 120.268Z" fill="white"/>
<path d="M17.6322 68.2588C20.1062 68.2588 21.2553 67.0015 21.2553 64.2571V59.0658H19.7412V64.2707C19.7412 66.0687 19.1599 66.7987 17.6458 66.7987C16.1587 66.7987 15.5503 66.0687 15.5503 64.2707L15.5503 59.0658H14.0362L14.0362 64.2571C14.0362 67.0015 15.2123 68.2588 17.6322 68.2588ZM23.7281 68.1236L26.0533 64.4194L28.4327 68.1236H30.3524L27.1754 63.5271L30.1496 59.0658H28.3245L26.1209 62.6078L23.9579 59.0658H22.0247L25.0124 63.446L21.8219 68.1236H23.7281ZM37.5396 68.1236C40.3515 68.1236 41.8521 66.3932 41.8521 63.5947C41.8521 60.7963 40.338 59.0658 37.5396 59.0658H34.1192V68.1236H37.5396ZM37.3503 60.4177C39.2294 60.4177 40.2569 61.3235 40.2569 63.5947C40.2569 65.8659 39.2294 66.7717 37.3638 66.7717H35.6469V60.4177H37.3503ZM46.2127 68.2588C47.6727 68.2588 48.565 67.5964 49.0652 66.8393L48.1324 65.8659C47.889 66.4202 47.3753 67.015 46.2262 67.015C45.1852 67.015 44.4957 66.3796 44.4146 65.2035H49.1193C49.1463 65.0683 49.1733 64.7844 49.1733 64.541C49.1733 62.716 48.0783 61.4046 46.1045 61.4046C44.2524 61.4046 42.9681 62.7701 42.9681 64.8385C42.9681 66.8934 44.2524 68.2588 46.2127 68.2588ZM46.1045 62.6213C47.1049 62.6213 47.6998 63.1891 47.8079 64.2301H44.4281C44.5498 63.1621 45.1717 62.6213 46.1045 62.6213ZM53.0995 68.2588C54.4919 68.2588 55.587 67.6099 55.587 66.312C55.587 65.3657 55.0462 64.7709 53.5726 64.3923L52.775 64.1896C51.8827 63.9597 51.5312 63.784 51.5312 63.3108C51.5312 62.8647 51.9233 62.6213 52.5046 62.6213C53.3563 62.6213 54.0593 63.054 54.519 63.784L55.4112 62.8376C55.0056 62.0941 54.0188 61.4181 52.6128 61.4181C51.0986 61.4181 50.1117 62.1617 50.1117 63.3919C50.1117 64.5951 51.0716 65.0548 52.1126 65.2981L52.9913 65.5144C53.7213 65.6902 54.2215 65.8524 54.2215 66.3391C54.2215 66.8122 53.8024 67.0421 53.1535 67.0421C51.9774 67.0421 51.1662 66.3661 50.8012 65.7037L49.909 66.65C50.4092 67.691 51.6935 68.2588 53.0995 68.2588ZM58.2993 60.607V59.0658H56.7852V60.607H58.2993ZM58.2993 68.1236V61.5398H56.7852V68.1236H58.2993ZM62.6182 66.1498C64.2405 66.1498 65.3356 65.1764 65.3356 63.784C65.3356 62.9593 64.957 62.2834 64.3081 61.8643L65.5384 60.5124L64.0783 60.0122L63.7538 61.5939C63.4159 61.4722 63.0373 61.4046 62.6182 61.4046C60.996 61.4046 59.8874 62.3915 59.8874 63.784C59.8874 64.6222 60.293 65.3116 60.9554 65.7172C60.347 66.1363 59.8333 66.7176 59.8333 67.3125C59.8333 67.8127 60.1443 68.1236 60.6174 68.2588C59.982 68.4075 59.3872 68.7455 59.3872 69.3673C59.3872 70.192 60.4552 70.7733 62.2938 70.7733C64.6867 70.7733 65.9034 69.827 65.9034 68.5832C65.9034 67.5964 65.1869 67.0691 63.8755 67.0691H61.753C61.1447 67.0691 60.9689 66.8934 60.9689 66.5554C60.9689 66.3256 61.1176 66.0687 61.2393 65.8659C61.6313 66.0552 62.1045 66.1498 62.6182 66.1498ZM62.6182 65.0683C61.9017 65.0683 61.3339 64.6086 61.3339 63.784C61.3339 62.9593 61.9017 62.4997 62.6182 62.4997C63.3347 62.4997 63.9025 62.9593 63.9025 63.784C63.9025 64.6086 63.3347 65.0683 62.6182 65.0683ZM62.3614 69.6377C61.1582 69.6377 60.6174 69.3538 60.6174 68.8671C60.6174 68.6373 60.7796 68.421 60.9284 68.2723H63.6727C64.254 68.2723 64.5379 68.421 64.5379 68.7725C64.5379 69.3268 63.7809 69.6377 62.3614 69.6377ZM68.3198 68.1236V64.4329C68.3198 63.3514 68.6983 62.6349 69.8069 62.6349C70.8208 62.6349 71.0912 63.1891 71.0912 64.0003V68.1236H72.6188V63.5406C72.6188 62.1752 71.8347 61.4046 70.5504 61.4046C69.2391 61.4046 68.5631 62.2969 68.3198 63.3379V61.5398H66.8057V68.1236H68.3198ZM77.0662 68.2588C78.5263 68.2588 79.4185 67.5964 79.9187 66.8393L78.9859 65.8659C78.7426 66.4202 78.2288 67.015 77.0797 67.015C76.0387 67.015 75.3493 66.3796 75.2682 65.2035H79.9728C79.9998 65.0683 80.0269 64.7844 80.0269 64.541C80.0269 62.716 78.9318 61.4046 76.958 61.4046C75.1059 61.4046 73.8216 62.7701 73.8216 64.8385C73.8216 66.8934 75.1059 68.2588 77.0662 68.2588ZM76.958 62.6213C77.9585 62.6213 78.5533 63.1891 78.6614 64.2301H75.2817C75.4034 63.1621 76.0252 62.6213 76.958 62.6213ZM82.8686 68.1236V64.5005C82.8686 63.4054 83.5716 62.5402 84.3287 62.5402C84.7748 62.5402 84.9505 62.8376 84.9505 63.2027C84.9505 63.5812 84.7478 64.0138 84.5315 64.2301H86.0861C86.2078 64.0273 86.3836 63.5542 86.3836 62.9188C86.3836 61.9454 85.7752 61.4046 84.9505 61.4046C83.7744 61.4046 83.112 62.351 82.8686 63.4054V61.5398H81.3545V68.1236H82.8686Z" fill="white"/>
<path d="M15.0331 85.5287L15.7631 83.6721H18.4759L19.2059 85.5287H19.8639L17.4395 79.4902H16.8356L14.4112 85.5287H15.0331ZM16.8086 81.0314L17.124 80.0941L17.4395 81.0314L18.2686 83.1494H15.9704L16.8086 81.0314ZM21.9421 85.6279C22.7983 85.6279 23.2579 85.033 23.3931 84.3481V85.5287H23.9789V79.4902H23.3931V82.3923C23.2579 81.7074 22.7983 81.1125 21.9421 81.1125C20.8155 81.1125 20.1395 82.0048 20.1395 83.3657C20.1395 84.7356 20.8155 85.6279 21.9421 85.6279ZM20.7434 83.3657C20.7434 82.158 21.3382 81.6082 22.1223 81.6082C22.9966 81.6082 23.3931 82.2391 23.3931 82.9601V83.7713C23.3931 84.4923 22.9966 85.1322 22.1223 85.1322C21.3382 85.1322 20.7434 84.5824 20.7434 83.3657ZM27.0711 85.5287L28.7024 81.2027H28.0715L27.1342 83.8344L26.7196 85.0781L26.287 83.8344L25.3496 81.2027H24.7007L26.332 85.5287H27.0711ZM30.9502 85.6189C32.1399 85.6189 32.978 84.7356 32.978 83.3657C32.978 81.9958 32.1399 81.1125 30.9502 81.1125C29.7605 81.1125 28.9313 81.9958 28.9313 83.3657C28.9313 84.7356 29.7605 85.6189 30.9502 85.6189ZM30.9502 85.1142C30.103 85.1142 29.5262 84.5103 29.5262 83.3657C29.5262 82.2121 30.103 81.5992 30.9502 81.5992C31.8064 81.5992 32.3832 82.2121 32.3832 83.3657C32.3832 84.5103 31.8064 85.1142 30.9502 85.1142ZM34.629 80.4276V79.4902H34.0342V80.4276H34.629ZM34.629 85.5287V81.2027H34.0342V85.5287H34.629ZM37.3063 85.6279C37.865 85.6279 38.2886 85.3665 38.4779 85.0511L38.2706 84.4743C38.1264 84.7807 37.811 85.0601 37.4234 85.0601C37.0449 85.0601 36.7204 84.8888 36.7204 84.267V81.6623H38.1715V81.2027H36.7204V80.1392L36.1346 80.5808V81.2027H35.4316V81.6623H36.1346V84.4292C36.1346 85.2133 36.6483 85.6279 37.3063 85.6279ZM43.2629 85.5287C45.1646 85.5287 46.1019 84.4202 46.1019 82.5095C46.1019 80.5988 45.1646 79.4902 43.2629 79.4902H41.2711V85.5287H43.2629ZM43.1818 80.013C44.6779 80.013 45.498 80.761 45.498 82.5095C45.498 84.258 44.6779 85.006 43.1818 85.006H41.8659V80.013H43.1818ZM47.7784 80.4276V79.4902H47.1835V80.4276H47.7784ZM47.7784 85.5287V81.2027H47.1835V85.5287H47.7784ZM50.717 84.1949C51.7264 84.1949 52.3934 83.555 52.3934 82.6537C52.3934 82.1219 52.159 81.6803 51.7535 81.4009L52.5286 80.4726L51.9067 80.2383L51.5552 81.2838C51.3118 81.1756 51.0325 81.1125 50.717 81.1125C49.7166 81.1125 49.0406 81.7524 49.0406 82.6537C49.0406 83.2035 49.293 83.6541 49.7076 83.9245C49.3471 84.2039 49.0767 84.5644 49.0767 84.9159C49.0767 85.1773 49.2209 85.3845 49.5183 85.4657C49.1758 85.6008 48.7432 85.8802 48.7432 86.3309C48.7432 86.9257 49.4282 87.2952 50.5277 87.2952C51.9157 87.2952 52.7449 86.7184 52.7449 85.9163C52.7449 85.2854 52.2762 84.979 51.5191 84.979L50.1762 84.979C49.7076 84.979 49.5634 84.8348 49.5634 84.5914C49.5634 84.3841 49.6986 84.1588 49.8338 83.9966C50.0861 84.1228 50.3835 84.1949 50.717 84.1949ZM50.717 83.7352C50.0771 83.7352 49.6175 83.3116 49.6175 82.6537C49.6175 81.9958 50.0771 81.5722 50.717 81.5722C51.3659 81.5722 51.8256 81.9958 51.8256 82.6537C51.8256 83.3116 51.3659 83.7352 50.717 83.7352ZM50.5277 86.8266C49.7076 86.8266 49.2299 86.5832 49.2299 86.1596C49.2299 85.8802 49.4642 85.6279 49.6806 85.4927H51.438C51.9518 85.4927 52.1951 85.6459 52.1951 85.9884C52.1951 86.4841 51.5732 86.8266 50.5277 86.8266ZM54.1682 80.4276V79.4902H53.5734V80.4276H54.1682ZM54.1682 85.5287V81.2027H53.5734V85.5287H54.1682ZM56.8455 85.6279C57.4043 85.6279 57.8279 85.3665 58.0172 85.0511L57.8099 84.4743C57.6657 84.7807 57.3502 85.0601 56.9627 85.0601C56.5841 85.0601 56.2597 84.8888 56.2597 84.267V81.6623H57.7107V81.2027H56.2597V80.1392L55.6739 80.5808V81.2027H54.9709V81.6623H55.6739V84.4292C55.6739 85.2133 56.1876 85.6279 56.8455 85.6279ZM59.5254 85.6189C60.3907 85.6189 60.9495 84.9519 61.0937 84.3301V84.7897C61.0937 85.3395 61.3821 85.5287 61.8147 85.5287H62.2202V84.997H61.9679C61.7606 84.997 61.6615 84.9159 61.6615 84.6906V82.6627C61.6615 81.6984 61.1387 81.1125 60.1293 81.1125C59.21 81.1125 58.5791 81.6262 58.3087 82.0769L58.7233 82.4915C58.9486 82.0138 59.4173 81.6443 60.0662 81.6443C60.7692 81.6443 61.0756 82.0228 61.0756 82.6717V82.7078L59.4353 83.4558C58.8315 83.7262 58.4079 84.0867 58.4079 84.6545C58.4079 85.2313 58.8134 85.6189 59.5254 85.6189ZM59.0027 84.5734C59.0027 84.2489 59.219 84.0326 59.6877 83.8163L61.0937 83.1494V83.9155C61.0937 84.5013 60.4988 85.1232 59.6967 85.1232C59.2731 85.1232 59.0027 84.9339 59.0027 84.5734ZM63.7706 85.5287V79.4902H63.1758V85.5287H63.7706ZM67.0673 85.5287L67.7973 83.6721H70.5102L71.2402 85.5287H71.8981L69.4737 79.4902H68.8699L66.4454 85.5287H67.0673ZM68.8428 81.0314L69.1583 80.0941L69.4737 81.0314L70.3029 83.1494H68.0046L68.8428 81.0314ZM74.1201 84.1949C75.1295 84.1949 75.7965 83.555 75.7965 82.6537C75.7965 82.1219 75.5621 81.6803 75.1566 81.4009L75.9317 80.4726L75.3098 80.2383L74.9583 81.2838C74.7149 81.1756 74.4356 81.1125 74.1201 81.1125C73.1197 81.1125 72.4437 81.7524 72.4437 82.6537C72.4437 83.2035 72.6961 83.6541 73.1107 83.9245C72.7502 84.2039 72.4798 84.5644 72.4798 84.9159C72.4798 85.1773 72.624 85.3845 72.9214 85.4657C72.5789 85.6008 72.1463 85.8802 72.1463 86.3309C72.1463 86.9257 72.8313 87.2952 73.9308 87.2952C75.3188 87.2952 76.148 86.7184 76.148 85.9163C76.148 85.2854 75.6793 84.979 74.9222 84.979H73.5793C73.1107 84.979 72.9665 84.8348 72.9665 84.5914C72.9665 84.3841 73.1017 84.1588 73.2369 83.9966C73.4892 84.1228 73.7866 84.1949 74.1201 84.1949ZM74.1201 83.7352C73.4802 83.7352 73.0206 83.3116 73.0206 82.6537C73.0206 81.9958 73.4802 81.5722 74.1201 81.5722C74.769 81.5722 75.2287 81.9958 75.2287 82.6537C75.2287 83.3116 74.769 83.7352 74.1201 83.7352ZM73.9308 86.8266C73.1107 86.8266 72.633 86.5832 72.633 86.1596C72.633 85.8802 72.8673 85.6279 73.0836 85.4927H74.8411C75.3548 85.4927 75.5982 85.6459 75.5982 85.9884C75.5982 86.4841 74.9763 86.8266 73.9308 86.8266ZM78.7264 85.6189C79.6457 85.6189 80.2225 85.1773 80.529 84.6455L80.1685 84.2219C79.9792 84.6455 79.6007 85.1232 78.7264 85.1232C77.8702 85.1232 77.2844 84.5824 77.2484 83.5009H80.547C80.556 83.4288 80.574 83.3206 80.574 83.2125C80.574 81.9056 79.835 81.1125 78.6543 81.1125C77.4827 81.1125 76.6806 81.9597 76.6806 83.3657C76.6806 84.7987 77.5187 85.6189 78.7264 85.6189ZM78.6543 81.5992C79.4475 81.5992 79.9792 82.0949 80.0333 83.0683H77.2574C77.3385 82.0949 77.8612 81.5992 78.6543 81.5992ZM82.2097 85.5287V83.0232C82.2097 82.2752 82.5792 81.6082 83.4895 81.6082C84.2376 81.6082 84.562 82.0408 84.562 82.7438V85.5287H85.1569V82.6086C85.1569 81.6172 84.58 81.1125 83.7238 81.1125C82.8586 81.1125 82.3629 81.7074 82.2097 82.4104V81.2027H81.6149V85.5287H82.2097ZM88.1341 85.6189C89.2157 85.6189 89.8916 84.988 90.0629 84.1138L89.4951 83.8704C89.4049 84.6004 88.9723 85.1232 88.1432 85.1232C87.287 85.1232 86.7192 84.5103 86.7192 83.3657C86.7192 82.2121 87.287 81.5992 88.1432 81.5992C88.9723 81.5992 89.4049 82.131 89.4951 82.861L90.0629 82.6176C89.8916 81.7434 89.2157 81.1125 88.1432 81.1125C86.9174 81.1125 86.1153 81.9597 86.1153 83.3657C86.1153 84.7717 86.9174 85.6189 88.1341 85.6189ZM91.3343 87.0519C91.9201 87.0519 92.3437 86.7364 92.5961 86.0425L94.4257 81.2027H93.8038L92.7223 84.1678L92.4068 85.0601L92.1004 84.1678L91.0098 81.2027H90.3789L91.9652 85.3845L92.2987 85.3755L92.1364 85.8081C91.9472 86.3399 91.6948 86.5292 91.3433 86.5292C90.9467 86.5292 90.7034 86.2858 90.5232 85.9343L90.1897 86.3669C90.3519 86.6914 90.7485 87.0519 91.3343 87.0519Z" fill="white"/>
<rect x="13.9337" y="14.4398" width="56.3294" height="28.1647" stroke="white" stroke-width="0.563294"/>
<path d="M27.9381 30.8893V28.3116H30.7501V27.7889H27.9381V25.3735H31.3359V24.8507H27.3433V30.8893H27.9381ZM33.2795 30.9794C34.1718 30.9794 34.6584 30.3755 34.8117 29.6545V30.8893H35.3975V26.5632H34.8117V29.0597C34.8117 29.8167 34.4512 30.4747 33.5138 30.4747C32.7748 30.4747 32.4503 30.0421 32.4503 29.3481V26.5632H31.8645V29.4743C31.8645 30.4747 32.4323 30.9794 33.2795 30.9794ZM37.2568 30.8893V24.8507H36.6619V30.8893H37.2568ZM39.1139 30.8893V24.8507L38.5191 24.8507V30.8893H39.1139ZM41.7912 30.9884C42.3499 30.9884 42.7735 30.727 42.9628 30.4116L42.7555 29.8348C42.6113 30.1412 42.2959 30.4206 41.9083 30.4206C41.5298 30.4206 41.2053 30.2494 41.2053 29.6275V27.0228H42.6564V26.5632H41.2053V25.4997L40.6195 25.9413V26.5632H39.9165V27.0228H40.6195V29.7897C40.6195 30.5738 41.1332 30.9884 41.7912 30.9884ZM44.3596 25.7881V24.8507H43.7647V25.7881H44.3596ZM44.3596 30.8893V26.5632H43.7647V30.8893H44.3596ZM46.2167 30.8893V28.3837C46.2167 27.6357 46.5862 26.9687 47.3523 26.9687C48.0282 26.9687 48.3617 27.3382 48.3617 28.0953V30.8893H48.9475V28.3837C48.9475 27.6357 49.317 26.9687 50.0921 26.9687C50.7591 26.9687 51.0925 27.3382 51.0925 28.0953V30.8893H51.6874V27.9601C51.6874 26.9687 51.2187 26.473 50.3896 26.473C49.5784 26.473 49.0827 27.0769 48.9385 27.7889C48.8934 26.9147 48.4338 26.473 47.6497 26.473C46.8476 26.473 46.3699 27.0589 46.2167 27.7709V26.5632H45.6218V30.8893H46.2167ZM54.7034 30.9794C55.6227 30.9794 56.1995 30.5378 56.5059 30.006L56.1454 29.5824C55.9562 30.006 55.5776 30.4837 54.7034 30.4837C53.8472 30.4837 53.2614 29.9429 53.2253 28.8614H56.524C56.533 28.7893 56.551 28.6811 56.551 28.573C56.551 27.2661 55.812 26.473 54.6313 26.473C53.4596 26.473 52.6575 27.3202 52.6575 28.7262C52.6575 30.1592 53.4957 30.9794 54.7034 30.9794ZM54.6313 26.9597C55.4244 26.9597 55.9562 27.4554 56.0102 28.4288H53.2343C53.3154 27.4554 53.8382 26.9597 54.6313 26.9597Z" fill="white"/>
<rect x="79.2758" y="14.4398" width="56.3294" height="28.1647" stroke="white" stroke-width="0.563294"/>
<path d="M97.2158 30.9794C98.9283 30.9794 100.082 29.6185 100.082 27.861C100.082 26.1215 98.9283 24.7606 97.2158 24.7606C95.5034 24.7606 94.3498 26.1215 94.3498 27.861C94.3498 29.6185 95.5034 30.9794 97.2158 30.9794ZM97.2249 30.4206C95.7918 30.4206 94.9717 29.3391 94.9717 27.861C94.9717 26.4009 95.7918 25.3104 97.2249 25.3104C98.6489 25.3104 99.469 26.4009 99.469 27.861C99.469 29.3391 98.6489 30.4206 97.2249 30.4206ZM101.814 30.8893V28.3837C101.814 27.6357 102.184 26.9687 103.094 26.9687C103.842 26.9687 104.166 27.4013 104.166 28.1043V30.8893H104.761V27.9691C104.761 26.9777 104.184 26.473 103.328 26.473C102.463 26.473 101.967 27.0679 101.814 27.7709V26.5632H101.219V30.8893H101.814ZM107.516 30.9794C108.318 30.9794 109.021 30.6099 109.021 29.7807C109.021 29.1678 108.66 28.7983 107.759 28.573L107.182 28.4288C106.552 28.2756 106.227 28.1133 106.227 27.6627C106.227 27.2121 106.597 26.9687 107.119 26.9687C107.795 26.9687 108.246 27.2932 108.444 27.879L108.895 27.5455C108.679 26.9327 108.075 26.473 107.155 26.473C106.263 26.473 105.668 26.9417 105.668 27.6897C105.668 28.4648 106.308 28.7532 106.93 28.9065L107.516 29.0416C108.102 29.1768 108.489 29.3391 108.489 29.7897C108.489 30.2403 108.111 30.4747 107.534 30.4747C106.66 30.4747 106.119 29.988 105.984 29.4022L105.542 29.7356C105.803 30.5828 106.633 30.9794 107.516 30.9794ZM110.615 25.7881V24.8507H110.021V25.7881H110.615ZM110.615 30.8893V26.5632H110.021V30.8893H110.615ZM113.293 30.9884C113.852 30.9884 114.275 30.727 114.464 30.4116L114.257 29.8348C114.113 30.1412 113.797 30.4206 113.41 30.4206C113.031 30.4206 112.707 30.2494 112.707 29.6275V27.0228H114.158V26.5632H112.707V25.4997L112.121 25.9413V26.5632H111.418V27.0228H112.121V29.7897C112.121 30.5738 112.635 30.9884 113.293 30.9884ZM116.743 30.9794C117.663 30.9794 118.24 30.5378 118.546 30.006L118.185 29.5824C117.996 30.006 117.618 30.4837 116.743 30.4837C115.887 30.4837 115.301 29.9429 115.265 28.8614L118.564 28.8614C118.573 28.7893 118.591 28.6811 118.591 28.573C118.591 27.2661 117.852 26.473 116.671 26.473C115.5 26.473 114.698 27.3202 114.698 28.7262C114.698 30.1592 115.536 30.9794 116.743 30.9794ZM116.671 26.9597C117.464 26.9597 117.996 27.4554 118.05 28.4288L115.274 28.4288C115.355 27.4554 115.878 26.9597 116.671 26.9597Z" fill="white"/>
<rect x="144.618" y="14.4399" width="56.3294" height="28.1647" stroke="white" stroke-width="0.563294"/>
<path d="M161.075 31.7906V30.9704C162.112 30.9164 162.914 30.3486 162.914 29.3391C162.914 28.2306 162.076 27.8701 161.147 27.6538L161.075 27.6357V25.3916C161.67 25.5268 162.112 25.9143 162.328 26.5722L162.824 26.1757C162.535 25.4186 161.914 24.9499 161.075 24.8148V23.9495H160.607V24.7697C160.58 24.7697 160.562 24.7697 160.535 24.7697C159.516 24.7697 158.588 25.3375 158.588 26.41C158.588 27.4645 159.399 27.834 160.246 28.0323L160.607 28.1134V30.4026C159.886 30.3125 159.12 29.9069 158.867 29.0057L158.408 29.4022C158.759 30.4116 159.642 30.8713 160.607 30.9524V31.7906H161.075ZM160.435 27.4825C159.651 27.2932 159.21 27.0229 159.21 26.3649C159.21 25.707 159.796 25.3285 160.526 25.3285C160.553 25.3285 160.58 25.3285 160.607 25.3285V27.5276L160.435 27.4825ZM162.319 29.3572C162.319 30.0692 161.751 30.3756 161.075 30.4207V28.2216C161.886 28.4288 162.319 28.6902 162.319 29.3572ZM168.155 30.8893V30.3666H165.586L164.829 30.4026L165.442 29.8709L166.622 28.7263C167.163 28.2035 168.028 27.3653 168.028 26.392C168.028 25.4727 167.488 24.7607 166.316 24.7607C164.937 24.7607 164.081 25.716 164.207 26.9057L164.757 27.2572C164.604 26.0495 165.18 25.3285 166.28 25.3285C167.1 25.3285 167.424 25.8692 167.424 26.428C167.424 27.14 166.893 27.7168 166.271 28.3387L164.171 30.4297V30.8893H168.155ZM171.341 30.9794C172.963 30.9794 173.73 29.6185 173.73 27.861C173.73 26.1216 172.963 24.7607 171.341 24.7607C169.719 24.7607 168.962 26.1216 168.962 27.861C168.962 29.6185 169.719 30.9794 171.341 30.9794ZM171.35 30.4207C170.07 30.4207 169.575 29.3301 169.575 27.861C169.575 26.41 170.07 25.3105 171.35 25.3105C172.63 25.3105 173.117 26.41 173.117 27.861C173.117 29.3301 172.63 30.4207 171.35 30.4207ZM177.027 30.9794C178.649 30.9794 179.415 29.6185 179.415 27.861C179.415 26.1216 178.649 24.7607 177.027 24.7607C175.405 24.7607 174.648 26.1216 174.648 27.861C174.648 29.6185 175.405 30.9794 177.027 30.9794ZM177.036 30.4207C175.756 30.4207 175.26 29.3301 175.26 27.861C175.26 26.41 175.756 25.3105 177.036 25.3105C178.316 25.3105 178.802 26.41 178.802 27.861C178.802 29.3301 178.316 30.4207 177.036 30.4207ZM181.206 30.8893V28.9155L182.414 27.6357L184.577 30.8893H185.307L182.838 27.2121L185.1 24.8508H184.352L181.955 27.3834L181.179 28.2125L181.206 27.2121V24.8508H180.612V30.8893H181.206Z" fill="white"/>
<path d="M163.269 118.763V117.862H160.953L160.052 117.952L160.755 117.429L161.593 116.69C162.233 116.158 163.098 115.32 163.098 114.347C163.098 113.355 162.503 112.634 161.287 112.634C159.899 112.634 158.916 113.518 158.943 114.725L159.8 115.338C159.745 114.176 160.304 113.608 161.197 113.608C161.782 113.608 162.035 113.977 162.035 114.41C162.035 114.978 161.62 115.437 161.034 116.005L158.952 117.988V118.763H163.269ZM167.823 118.763V117.402H168.842V116.519H167.823V112.725H166.751L163.795 116.618V117.402H166.814V118.763H167.823ZM164.912 116.519L166.814 114.04V116.519H164.912ZM172.05 118.763L172.627 117.24H175.178L175.755 118.763H176.872L174.511 112.725H173.339L170.978 118.763H172.05ZM173.583 114.725L173.907 113.635L174.232 114.725L174.844 116.357H172.961L173.583 114.725ZM178.459 120.439V117.591C178.603 118.267 178.973 118.853 179.847 118.853C180.929 118.853 181.614 117.979 181.614 116.564C181.614 115.149 180.929 114.275 179.865 114.275C178.991 114.275 178.603 114.861 178.459 115.546V114.374H177.45V120.439H178.459ZM178.459 116.834V116.294C178.459 115.573 178.756 115.095 179.468 115.095C180.099 115.095 180.577 115.573 180.577 116.564C180.577 117.555 180.099 118.033 179.468 118.033C178.756 118.033 178.459 117.555 178.459 116.834ZM183.458 120.439V117.591C183.603 118.267 183.972 118.853 184.846 118.853C185.928 118.853 186.613 117.979 186.613 116.564C186.613 115.149 185.928 114.275 184.864 114.275C183.99 114.275 183.603 114.861 183.458 115.546V114.374H182.449V120.439H183.458ZM183.458 116.834V116.294C183.458 115.573 183.756 115.095 184.468 115.095C185.099 115.095 185.576 115.573 185.576 116.564C185.576 117.555 185.099 118.033 184.468 118.033C183.756 118.033 183.458 117.555 183.458 116.834ZM188.458 118.763V112.725H187.448V118.763H188.458ZM190.535 113.752V112.725H189.525V113.752H190.535ZM190.535 118.763V114.374H189.525V118.763H190.535ZM193.549 118.853C194.523 118.853 195.117 118.412 195.451 117.907L194.829 117.258C194.667 117.627 194.324 118.024 193.558 118.024C192.864 118.024 192.405 117.6 192.35 116.816L195.487 116.816C195.505 116.726 195.523 116.537 195.523 116.375C195.523 115.158 194.793 114.284 193.477 114.284C192.242 114.284 191.386 115.194 191.386 116.573C191.386 117.943 192.242 118.853 193.549 118.853ZM193.477 115.095C194.144 115.095 194.541 115.473 194.613 116.167H192.359C192.441 115.455 192.855 115.095 193.477 115.095ZM198.019 118.862C198.893 118.862 199.263 118.276 199.407 117.6V118.763H200.417V112.725H199.407V115.555C199.263 114.87 198.875 114.284 198.001 114.284C196.938 114.284 196.253 115.158 196.253 116.573C196.253 117.988 196.938 118.862 198.019 118.862ZM197.289 116.573C197.289 115.591 197.767 115.104 198.398 115.104C199.11 115.104 199.407 115.582 199.407 116.303V116.852C199.407 117.573 199.11 118.042 198.407 118.042C197.767 118.042 197.289 117.564 197.289 116.573Z" fill="white"/>
<path d="M151.377 113.67C151.344 113.664 151.304 113.664 151.27 113.67C150.493 113.642 149.873 113.005 149.873 112.216C149.873 111.411 150.521 110.763 151.327 110.763C152.132 110.763 152.78 111.417 152.78 112.216C152.774 113.005 152.155 113.642 151.377 113.67Z" stroke="white" stroke-width="0.844941" stroke-linecap="round" stroke-linejoin="round"/>
<path d="M150.797 117.77C151.569 117.9 152.42 117.765 153.017 117.365C153.811 116.835 153.811 115.968 153.017 115.438C152.414 115.038 151.552 114.903 150.78 115.038" stroke="white" stroke-width="0.844941" stroke-linecap="round" stroke-linejoin="round"/>
<path d="M144.601 113.67C144.635 113.664 144.674 113.664 144.708 113.67C145.485 113.642 146.105 113.005 146.105 112.216C146.105 111.411 145.457 110.763 144.652 110.763C143.846 110.763 143.198 111.417 143.198 112.216C143.204 113.005 143.824 113.642 144.601 113.67Z" stroke="white" stroke-width="0.844941" stroke-linecap="round" stroke-linejoin="round"/>
<path d="M145.181 117.77C144.409 117.9 143.559 117.765 142.962 117.365C142.168 116.835 142.168 115.968 142.962 115.438C143.565 115.038 144.426 114.903 145.198 115.038" stroke="white" stroke-width="0.844941" stroke-linecap="round" stroke-linejoin="round"/>
<path d="M147.998 117.877C147.964 117.872 147.924 117.872 147.891 117.877C147.113 117.849 146.494 117.213 146.494 116.424C146.494 115.619 147.142 114.971 147.947 114.971C148.753 114.971 149.4 115.624 149.4 116.424C149.395 117.213 148.775 117.855 147.998 117.877Z" stroke="white" stroke-width="0.844941" stroke-linecap="round" stroke-linejoin="round"/>
<path d="M146.359 119.652C145.564 120.181 145.564 121.049 146.359 121.578C147.26 122.181 148.736 122.181 149.637 121.578C150.431 121.049 150.431 120.181 149.637 119.652C148.741 119.055 147.26 119.055 146.359 119.652Z" stroke="white" stroke-width="0.844941" stroke-linecap="round" stroke-linejoin="round"/>
</g>
<defs>
<linearGradient id="paint0_linear_107_173" x1="42.0984" y1="102.314" x2="42.0984" y2="130.478" gradientUnits="userSpaceOnUse">
<stop stop-color="#CE9FFC"/>
<stop offset="0.505208" stop-color="#A582F7"/>
<stop offset="1" stop-color="#7367F0"/>
</linearGradient>
<clipPath id="clip0_107_173">
<rect width="214" height="143" fill="white" transform="translate(0.414673 0.920807)"/>
</clipPath>
</defs>
</svg>
