<svg width="114" height="76" viewBox="0 0 114 76" fill="none" xmlns="http://www.w3.org/2000/svg">
<g clip-path="url(#clip0_107_208)">
<rect x="0.30835" y="0.734985" width="112.611" height="75.2716" fill="#111111"/>
<path d="M35.7623 85.7023C40.8777 82.749 43.1673 78.2652 39.6272 72.1335L31.2364 57.6004L25.1386 61.121L33.1382 74.9766C34.6246 77.5512 33.7819 78.9863 32.1897 79.9056C29.5473 81.4312 26.8141 79.9829 24.547 77.5427L21.9886 84.8466C26.5457 88.3586 31.1551 88.3623 35.7623 85.7023ZM57.462 73.0837C64.3729 69.0937 66.1962 61.2205 62.4213 54.6823C58.6465 48.144 50.9165 45.7864 44.0056 49.7764C37.0947 53.7664 35.2715 61.6396 39.0463 68.1778C42.8212 74.716 50.5512 77.0737 57.462 73.0837ZM54.0393 67.1552C50.5161 69.1893 47.3801 67.7477 45.4829 64.4617C43.5857 61.1756 43.9052 57.739 47.4284 55.7049C50.9516 53.6708 54.0875 55.1124 55.9847 58.3984C57.8819 61.6845 57.5624 65.1211 54.0393 67.1552ZM82.4856 58.275C87.2622 55.5172 89.7854 52.2988 87.2037 47.8271C85.2282 44.4055 81.6285 43.4123 75.158 47.148C78.5118 45.2117 82.8882 41.9171 80.0913 37.0728C78.331 34.0239 75.0047 32.3308 69.4828 35.5189L57.3549 42.5209L70.4593 65.2183L82.4856 58.275ZM71.1555 41.7802C72.6122 40.9391 73.7525 40.9583 74.4566 42.1779C75.1412 43.3636 74.5681 44.3268 73.1114 45.1678L68.538 47.8083L66.5821 44.4206L71.1555 41.7802ZM76.3578 49.6172C78.2549 48.5219 79.3861 48.6819 80.1098 49.9353C80.8139 51.1549 80.4063 52.2484 78.5092 53.3437L73.4277 56.2775L71.2762 52.551L76.3578 49.6172ZM108.954 42.9933L105.825 37.573L94.8826 43.8905L84.9076 26.6133L78.8098 30.1339L91.9142 52.8314L108.954 42.9933ZM118.188 37.662L114.003 30.4124L113.926 9.85972L106.405 14.2018L107.064 20.5064L108.077 26.8774L103.066 22.8144L97.9697 19.0719L90.2458 23.5313L107.866 33.8652L112.09 41.1826L118.188 37.662Z" fill="white" fill-opacity="0.02"/>
<rect x="7.42065" y="54.0771" width="29.6345" height="14.8173" fill="url(#paint0_linear_107_208)"/>
<path d="M16.3377 62.5223L16.6412 61.7209H17.983L18.2865 62.5223H18.8745L17.6322 59.3454H17.0158L15.7735 62.5223H16.3377ZM17.1438 60.3981L17.3145 59.8243L17.4852 60.3981L17.8076 61.2563H16.8166L17.1438 60.3981ZM19.7093 63.4042V61.9059C19.7851 62.2615 19.9795 62.5697 20.4395 62.5697C21.0084 62.5697 21.3688 62.1098 21.3688 61.3653C21.3688 60.6209 21.0084 60.161 20.4489 60.161C19.989 60.161 19.7851 60.4692 19.7093 60.8295V60.2131H19.1782L19.1782 63.4042H19.7093ZM19.7093 61.5076V61.2231C19.7093 60.8438 19.8657 60.5925 20.2403 60.5925C20.5722 60.5925 20.8235 60.8438 20.8235 61.3653C20.8235 61.8869 20.5722 62.1382 20.2403 62.1382C19.8657 62.1382 19.7093 61.8869 19.7093 61.5076ZM22.3393 63.4042V61.9059C22.4152 62.2615 22.6096 62.5697 23.0695 62.5697C23.6385 62.5697 23.9989 62.1098 23.9989 61.3653C23.9989 60.6209 23.6385 60.161 23.079 60.161C22.6191 60.161 22.4152 60.4692 22.3393 60.8295V60.2131H21.8083L21.8083 63.4042H22.3393ZM22.3393 61.5076V61.2231C22.3393 60.8438 22.4958 60.5925 22.8704 60.5925C23.2023 60.5925 23.4536 60.8438 23.4536 61.3653C23.4536 61.8869 23.2023 62.1382 22.8704 62.1382C22.4958 62.1382 22.3393 61.8869 22.3393 61.5076ZM24.9694 62.5223V59.3454H24.4383V62.5223H24.9694ZM25.9816 63.3141C26.3561 63.3141 26.6264 63.1481 26.7924 62.6835L27.6458 60.2131H27.0579L26.6454 61.5218L26.4794 62.1382L26.3135 61.5218L25.8962 60.2131H25.313L26.0764 62.38H26.4035L26.3609 62.508C26.2755 62.7641 26.1617 62.8447 25.9816 62.8447C25.7682 62.8447 25.6259 62.7119 25.5027 62.5365L25.2514 62.9632C25.3794 63.1434 25.6496 63.3141 25.9816 63.3141Z" fill="white"/>
<path d="M9.94061 36.8479C11.2422 36.8479 11.8467 36.1865 11.8467 34.7427L11.8467 32.0116H11.0501V34.7498C11.0501 35.6957 10.7443 36.0798 9.94772 36.0798C9.16537 36.0798 8.84532 35.6957 8.84532 34.7498L8.84532 32.0116H8.04874V34.7427C8.04874 36.1865 8.66751 36.8479 9.94061 36.8479ZM13.1476 36.7768L14.3709 34.828L15.6227 36.7768H16.6326L14.9612 34.3586L16.5259 32.0116H15.5658L14.4065 33.875L13.2685 32.0116H12.2514L13.8233 34.3159L12.1448 36.7768H13.1476ZM20.4137 36.7768C21.8931 36.7768 22.6825 35.8664 22.6825 34.3942C22.6825 32.9219 21.886 32.0116 20.4137 32.0116H18.6143V36.7768H20.4137ZM20.3142 32.7228C21.3028 32.7228 21.8433 33.1993 21.8433 34.3942C21.8433 35.589 21.3028 36.0656 20.3213 36.0656H19.418V32.7228H20.3142ZM24.9766 36.8479C25.7447 36.8479 26.2141 36.4994 26.4773 36.1011L25.9865 35.589C25.8585 35.8806 25.5882 36.1936 24.9837 36.1936C24.4361 36.1936 24.0733 35.8593 24.0307 35.2405H26.5057C26.52 35.1694 26.5342 35.0201 26.5342 34.892C26.5342 33.9319 25.9581 33.242 24.9197 33.242C23.9453 33.242 23.2696 33.9603 23.2696 35.0485C23.2696 36.1296 23.9453 36.8479 24.9766 36.8479ZM24.9197 33.8821C25.446 33.8821 25.7589 34.1808 25.8158 34.7285H24.0378C24.1018 34.1666 24.4289 33.8821 24.9197 33.8821ZM28.5997 36.8479C29.3322 36.8479 29.9083 36.5065 29.9083 35.8237C29.9083 35.3259 29.6239 35.0129 28.8486 34.8138L28.429 34.7071C27.9596 34.5862 27.7747 34.4937 27.7747 34.2448C27.7747 34.0101 27.9809 33.8821 28.2867 33.8821C28.7348 33.8821 29.1047 34.1097 29.3465 34.4937L29.8159 33.9959C29.6025 33.6047 29.0833 33.2491 28.3436 33.2491C27.5471 33.2491 27.0279 33.6403 27.0279 34.2875C27.0279 34.9205 27.5328 35.1623 28.0805 35.2903L28.5428 35.4041C28.9268 35.4966 29.19 35.5819 29.19 35.838C29.19 36.0869 28.9695 36.2078 28.6281 36.2078C28.0094 36.2078 27.5826 35.8522 27.3906 35.5037L26.9212 36.0015C27.1843 36.5492 27.86 36.8479 28.5997 36.8479ZM31.3353 32.8224V32.0116H30.5387V32.8224H31.3353ZM31.3353 36.7768V33.3131H30.5387V36.7768H31.3353ZM33.6075 35.7384C34.4609 35.7384 35.037 35.2263 35.037 34.4937C35.037 34.0599 34.8379 33.7043 34.4965 33.4838L35.1437 32.7726L34.3756 32.5094L34.2049 33.3416C34.0271 33.2775 33.8279 33.242 33.6075 33.242C32.754 33.242 32.1708 33.7612 32.1708 34.4937C32.1708 34.9347 32.3841 35.2974 32.7326 35.5108C32.4126 35.7313 32.1423 36.0371 32.1423 36.3501C32.1423 36.6132 32.3059 36.7768 32.5548 36.8479C32.2206 36.9261 31.9076 37.104 31.9076 37.4311C31.9076 37.865 32.4695 38.1708 33.4368 38.1708C34.6956 38.1708 35.3357 37.6729 35.3357 37.0186C35.3357 36.4994 34.9588 36.222 34.2689 36.222H33.1523C32.8322 36.222 32.7398 36.1296 32.7398 35.9518C32.7398 35.8309 32.818 35.6957 32.882 35.589C33.0883 35.6886 33.3372 35.7384 33.6075 35.7384ZM33.6075 35.1694C33.2305 35.1694 32.9318 34.9276 32.9318 34.4937C32.9318 34.0599 33.2305 33.8181 33.6075 33.8181C33.9844 33.8181 34.2831 34.0599 34.2831 34.4937C34.2831 34.9276 33.9844 35.1694 33.6075 35.1694ZM33.4723 37.5734C32.8393 37.5734 32.5548 37.424 32.5548 37.168C32.5548 37.0471 32.6402 36.9333 32.7184 36.855H34.1622C34.468 36.855 34.6174 36.9333 34.6174 37.1182C34.6174 37.4098 34.2191 37.5734 33.4723 37.5734ZM36.607 36.7768V34.8351C36.607 34.2662 36.8061 33.8892 37.3894 33.8892C37.9228 33.8892 38.065 34.1808 38.065 34.6075V36.7768H38.8687V34.3657C38.8687 33.6474 38.4562 33.242 37.7805 33.242C37.0906 33.242 36.735 33.7114 36.607 34.259V33.3131H35.8104V36.7768H36.607ZM41.2084 36.8479C41.9766 36.8479 42.446 36.4994 42.7091 36.1011L42.2184 35.589C42.0903 35.8806 41.8201 36.1936 41.2155 36.1936C40.6679 36.1936 40.3052 35.8593 40.2625 35.2405L42.7376 35.2405C42.7518 35.1694 42.766 35.0201 42.766 34.892C42.766 33.9319 42.1899 33.242 41.1515 33.242C40.1771 33.242 39.5015 33.9603 39.5015 35.0485C39.5015 36.1296 40.1771 36.8479 41.2084 36.8479ZM41.1515 33.8821C41.6778 33.8821 41.9908 34.1808 42.0477 34.7285H40.2696C40.3336 34.1666 40.6608 33.8821 41.1515 33.8821ZM44.261 36.7768V34.8707C44.261 34.2946 44.6309 33.8394 45.0292 33.8394C45.2639 33.8394 45.3563 33.9959 45.3563 34.1879C45.3563 34.3871 45.2496 34.6147 45.1359 34.7285H45.9538C46.0178 34.6218 46.1102 34.3728 46.1102 34.0386C46.1102 33.5265 45.7902 33.242 45.3563 33.242C44.7376 33.242 44.3891 33.7398 44.261 34.2946V33.3131H43.4645V36.7768H44.261Z" fill="white"/>
<path d="M8.20579 45.0379L8.58985 44.0612H10.017L10.4011 45.0379H10.7472L9.47177 41.8611H9.15409L7.87862 45.0379H8.20579ZM9.13987 42.6719L9.30582 42.1788L9.47177 42.6719L9.90799 43.7861H8.6989L9.13987 42.6719ZM11.8406 45.0901C12.291 45.0901 12.5328 44.7771 12.604 44.4168V45.0379H12.9122V41.8611H12.604V43.3879C12.5328 43.0275 12.291 42.7146 11.8406 42.7146C11.2479 42.7146 10.8923 43.184 10.8923 43.8999C10.8923 44.6207 11.2479 45.0901 11.8406 45.0901ZM11.2099 43.8999C11.2099 43.2646 11.5229 42.9753 11.9354 42.9753C12.3953 42.9753 12.604 43.3073 12.604 43.6866V44.1133C12.604 44.4926 12.3953 44.8293 11.9354 44.8293C11.5229 44.8293 11.2099 44.54 11.2099 43.8999ZM14.5389 45.0379L15.3971 42.762H15.0652L14.5721 44.1465L14.354 44.8008L14.1264 44.1465L13.6333 42.762H13.2919L14.1501 45.0379H14.5389ZM16.5797 45.0853C17.2056 45.0853 17.6465 44.6207 17.6465 43.8999C17.6465 43.1792 17.2056 42.7146 16.5797 42.7146C15.9538 42.7146 15.5176 43.1792 15.5176 43.8999C15.5176 44.6207 15.9538 45.0853 16.5797 45.0853ZM16.5797 44.8198C16.134 44.8198 15.8305 44.5021 15.8305 43.8999C15.8305 43.293 16.134 42.9706 16.5797 42.9706C17.0301 42.9706 17.3336 43.293 17.3336 43.8999C17.3336 44.5021 17.0301 44.8198 16.5797 44.8198ZM18.5151 42.3542V41.8611H18.2021V42.3542H18.5151ZM18.5151 45.0379V42.762H18.2021V45.0379H18.5151ZM19.9236 45.0901C20.2175 45.0901 20.4404 44.9526 20.54 44.7866L20.4309 44.4831C20.355 44.6444 20.1891 44.7913 19.9852 44.7913C19.7861 44.7913 19.6154 44.7013 19.6154 44.3741V43.0038H20.3788V42.762H19.6154V42.2025L19.3072 42.4348V42.762H18.9373V43.0038H19.3072V44.4594C19.3072 44.872 19.5774 45.0901 19.9236 45.0901ZM23.0573 45.0379C24.0578 45.0379 24.5509 44.4547 24.5509 43.4495C24.5509 42.4443 24.0578 41.8611 23.0573 41.8611H22.0094V45.0379H23.0573ZM23.0146 42.1361C23.8017 42.1361 24.2332 42.5296 24.2332 43.4495C24.2332 44.3694 23.8017 44.7629 23.0146 44.7629H22.3224V42.1361H23.0146ZM25.4329 42.3542V41.8611H25.1199V42.3542H25.4329ZM25.4329 45.0379V42.762H25.1199V45.0379H25.4329ZM26.9789 44.3362C27.5099 44.3362 27.8608 43.9995 27.8608 43.5254C27.8608 43.2456 27.7375 43.0133 27.5241 42.8663L27.9319 42.3779L27.6048 42.2546L27.4198 42.8047C27.2918 42.7478 27.1448 42.7146 26.9789 42.7146C26.4526 42.7146 26.097 43.0512 26.097 43.5254C26.097 43.8146 26.2297 44.0517 26.4478 44.1939C26.2582 44.3409 26.1159 44.5306 26.1159 44.7155C26.1159 44.853 26.1918 44.962 26.3483 45.0047C26.1681 45.0758 25.9405 45.2228 25.9405 45.4599C25.9405 45.7728 26.3008 45.9672 26.8793 45.9672C27.6095 45.9672 28.0457 45.6638 28.0457 45.2418C28.0457 44.9099 27.7992 44.7487 27.4009 44.7487H26.6944C26.4478 44.7487 26.372 44.6728 26.372 44.5448C26.372 44.4357 26.4431 44.3172 26.5142 44.2318C26.647 44.2982 26.8034 44.3362 26.9789 44.3362ZM26.9789 44.0943C26.6422 44.0943 26.4004 43.8715 26.4004 43.5254C26.4004 43.1792 26.6422 42.9564 26.9789 42.9564C27.3203 42.9564 27.5621 43.1792 27.5621 43.5254C27.5621 43.8715 27.3203 44.0943 26.9789 44.0943ZM26.8793 45.7207C26.4478 45.7207 26.1965 45.5927 26.1965 45.3698C26.1965 45.2228 26.3198 45.0901 26.4336 45.0189H27.3582C27.6285 45.0189 27.7565 45.0995 27.7565 45.2797C27.7565 45.5405 27.4293 45.7207 26.8793 45.7207ZM28.7945 42.3542V41.8611H28.4816V42.3542H28.7945ZM28.7945 45.0379V42.762H28.4816V45.0379H28.7945ZM30.203 45.0901C30.497 45.0901 30.7199 44.9526 30.8194 44.7866L30.7104 44.4831C30.6345 44.6444 30.4686 44.7913 30.2647 44.7913C30.0655 44.7913 29.8948 44.7013 29.8948 44.3741V43.0038H30.6582V42.762H29.8948V42.2025L29.5866 42.4348V42.762H29.2168V43.0038H29.5866V44.4594C29.5866 44.872 29.8569 45.0901 30.203 45.0901ZM31.6129 45.0853C32.0681 45.0853 32.3621 44.7344 32.438 44.4073V44.6491C32.438 44.9383 32.5897 45.0379 32.8173 45.0379H33.0306V44.7582H32.8979C32.7888 44.7582 32.7367 44.7155 32.7367 44.5969V43.5301C32.7367 43.0228 32.4617 42.7146 31.9306 42.7146C31.447 42.7146 31.1151 42.9848 30.9728 43.2219L31.1909 43.44C31.3095 43.1887 31.556 42.9943 31.8974 42.9943C32.2673 42.9943 32.4285 43.1935 32.4285 43.5348V43.5538L31.5655 43.9474C31.2478 44.0896 31.025 44.2793 31.025 44.578C31.025 44.8814 31.2384 45.0853 31.6129 45.0853ZM31.3379 44.5353C31.3379 44.3646 31.4517 44.2508 31.6983 44.137L32.438 43.7861V44.1892C32.438 44.4974 32.125 44.8245 31.703 44.8245C31.4802 44.8245 31.3379 44.725 31.3379 44.5353ZM33.8463 45.0379V41.8611H33.5334V45.0379H33.8463ZM35.5807 45.0379L35.9647 44.0612H37.3919L37.776 45.0379H38.1221L36.8466 41.8611H36.529L35.2535 45.0379H35.5807ZM36.5147 42.6719L36.6807 42.1788L36.8466 42.6719L37.2829 43.7861H36.0738L36.5147 42.6719ZM39.2911 44.3362C39.8221 44.3362 40.173 43.9995 40.173 43.5254C40.173 43.2456 40.0497 43.0133 39.8364 42.8663L40.2441 42.3779L39.917 42.2546L39.732 42.8047C39.604 42.7478 39.457 42.7146 39.2911 42.7146C38.7648 42.7146 38.4092 43.0512 38.4092 43.5254C38.4092 43.8146 38.5419 44.0517 38.76 44.1939C38.5704 44.3409 38.4281 44.5306 38.4281 44.7155C38.4281 44.853 38.504 44.962 38.6605 45.0047C38.4803 45.0758 38.2527 45.2228 38.2527 45.4599C38.2527 45.7728 38.613 45.9672 39.1915 45.9672C39.9217 45.9672 40.3579 45.6638 40.3579 45.2418C40.3579 44.9099 40.1114 44.7487 39.7131 44.7487H39.0066C38.76 44.7487 38.6842 44.6728 38.6842 44.5448C38.6842 44.4357 38.7553 44.3172 38.8264 44.2318C38.9592 44.2982 39.1157 44.3362 39.2911 44.3362ZM39.2911 44.0943C38.9544 44.0943 38.7126 43.8715 38.7126 43.5254C38.7126 43.1792 38.9544 42.9564 39.2911 42.9564C39.6325 42.9564 39.8743 43.1792 39.8743 43.5254C39.8743 43.8715 39.6325 44.0943 39.2911 44.0943ZM39.1915 45.7207C38.76 45.7207 38.5087 45.5927 38.5087 45.3698C38.5087 45.2228 38.632 45.0901 38.7458 45.0189H39.6704C39.9407 45.0189 40.0687 45.0995 40.0687 45.2797C40.0687 45.5405 39.7415 45.7207 39.1915 45.7207ZM41.7144 45.0853C42.1981 45.0853 42.5015 44.853 42.6627 44.5732L42.4731 44.3504C42.3735 44.5732 42.1744 44.8245 41.7144 44.8245C41.264 44.8245 40.9558 44.54 40.9368 43.9711H42.6722C42.677 43.9331 42.6865 43.8762 42.6865 43.8193C42.6865 43.1318 42.2977 42.7146 41.6765 42.7146C41.0601 42.7146 40.6381 43.1603 40.6381 43.8999C40.6381 44.6538 41.0791 45.0853 41.7144 45.0853ZM41.6765 42.9706C42.0938 42.9706 42.3735 43.2314 42.402 43.7435H40.9416C40.9843 43.2314 41.2593 42.9706 41.6765 42.9706ZM43.547 45.0379V43.7198C43.547 43.3262 43.7414 42.9753 44.2203 42.9753C44.6138 42.9753 44.7845 43.2029 44.7845 43.5728V45.0379H45.0975V43.5017C45.0975 42.9801 44.794 42.7146 44.3435 42.7146C43.8884 42.7146 43.6276 43.0275 43.547 43.3973V42.762H43.234V45.0379H43.547ZM46.6638 45.0853C47.2328 45.0853 47.5884 44.7534 47.6785 44.2935L47.3798 44.1655C47.3323 44.5495 47.1047 44.8245 46.6685 44.8245C46.2181 44.8245 45.9194 44.5021 45.9194 43.8999C45.9194 43.293 46.2181 42.9706 46.6685 42.9706C47.1047 42.9706 47.3323 43.2504 47.3798 43.6344L47.6785 43.5064C47.5884 43.0465 47.2328 42.7146 46.6685 42.7146C46.0237 42.7146 45.6017 43.1603 45.6017 43.8999C45.6017 44.6396 46.0237 45.0853 46.6638 45.0853ZM48.3474 45.8392C48.6556 45.8392 48.8784 45.6733 49.0112 45.3082L49.9737 42.762H49.6465L49.0775 44.3219L48.9116 44.7913L48.7504 44.3219L48.1767 42.762H47.8448L48.6793 44.962L48.8547 44.9573L48.7693 45.1849C48.6698 45.4646 48.537 45.5642 48.3521 45.5642C48.1435 45.5642 48.0154 45.4362 47.9206 45.2513L47.7452 45.4789C47.8305 45.6496 48.0392 45.8392 48.3474 45.8392Z" fill="white"/>
<rect x="7.42065" y="7.84726" width="29.6345" height="14.8173" stroke="white" stroke-width="0.296345"/>
<path d="M14.3419 16.2924V14.9364H15.8212V14.6613H14.3419V13.3906L16.1294 13.3906V13.1156H14.0289L14.0289 16.2924H14.3419ZM17.1519 16.3398C17.6213 16.3398 17.8774 16.0222 17.958 15.6428V16.2924H18.2662L18.2662 14.0165H17.958V15.3299C17.958 15.7282 17.7683 16.0743 17.2752 16.0743C16.8864 16.0743 16.7157 15.8467 16.7157 15.4816V14.0165H16.4075V15.548C16.4075 16.0743 16.7062 16.3398 17.1519 16.3398ZM19.2443 16.2924V13.1156H18.9314L18.9314 16.2924H19.2443ZM20.2213 16.2924V13.1156H19.9084L19.9084 16.2924H20.2213ZM21.6298 16.3446C21.9238 16.3446 22.1467 16.2071 22.2462 16.0411L22.1372 15.7377C22.0613 15.8989 21.8954 16.0459 21.6915 16.0459C21.4923 16.0459 21.3216 15.9558 21.3216 15.6286V14.2583H22.085V14.0165H21.3216V13.457L21.0134 13.6893V14.0165H20.6436V14.2583H21.0134V15.714C21.0134 16.1265 21.2837 16.3446 21.6298 16.3446ZM22.9811 13.6087V13.1156H22.6681V13.6087H22.9811ZM22.9811 16.2924V14.0165H22.6681V16.2924H22.9811ZM23.9581 16.2924V14.9743C23.9581 14.5807 24.1525 14.2299 24.5555 14.2299C24.9111 14.2299 25.0866 14.4243 25.0866 14.8226V16.2924H25.3947V14.9743C25.3947 14.5807 25.5892 14.2299 25.9969 14.2299C26.3478 14.2299 26.5232 14.4243 26.5232 14.8226V16.2924H26.8362V14.7514C26.8362 14.2299 26.5896 13.9691 26.1534 13.9691C25.7267 13.9691 25.4659 14.2868 25.39 14.6613C25.3663 14.2014 25.1245 13.9691 24.712 13.9691C24.29 13.9691 24.0387 14.2773 23.9581 14.6519V14.0165H23.6451V16.2924H23.9581ZM28.4229 16.3398C28.9065 16.3398 29.21 16.1075 29.3712 15.8278L29.1815 15.6049C29.0819 15.8278 28.8828 16.0791 28.4229 16.0791C27.9724 16.0791 27.6642 15.7946 27.6453 15.2256H29.3807C29.3854 15.1877 29.3949 15.1308 29.3949 15.0739C29.3949 14.3863 29.0061 13.9691 28.3849 13.9691C27.7685 13.9691 27.3466 14.4148 27.3466 15.1545C27.3466 15.9084 27.7875 16.3398 28.4229 16.3398ZM28.3849 14.2251C28.8022 14.2251 29.0819 14.4859 29.1104 14.998H27.65C27.6927 14.4859 27.9677 14.2251 28.3849 14.2251Z" fill="white"/>
<rect x="41.7967" y="7.84725" width="29.6345" height="14.8173" stroke="white" stroke-width="0.296345"/>
<path d="M50.6298 16.3399C51.5307 16.3399 52.1376 15.6239 52.1376 14.6993C52.1376 13.7842 51.5307 13.0682 50.6298 13.0682C49.7289 13.0682 49.122 13.7842 49.122 14.6993C49.122 15.6239 49.7289 16.3399 50.6298 16.3399ZM50.6345 16.0459C49.8806 16.0459 49.4492 15.4769 49.4492 14.6993C49.4492 13.9312 49.8806 13.3574 50.6345 13.3574C51.3837 13.3574 51.8152 13.9312 51.8152 14.6993C51.8152 15.4769 51.3837 16.0459 50.6345 16.0459ZM53.0489 16.2924V14.9743C53.0489 14.5807 53.2433 14.2299 53.7222 14.2299C54.1157 14.2299 54.2864 14.4575 54.2864 14.8273L54.2864 16.2924H54.5993V14.7562C54.5993 14.2346 54.2959 13.9691 53.8454 13.9691C53.3903 13.9691 53.1295 14.282 53.0489 14.6519V14.0165H52.7359V16.2924H53.0489ZM56.0486 16.3399C56.4706 16.3399 56.8404 16.1454 56.8404 15.7092C56.8404 15.3868 56.6508 15.1924 56.1766 15.0739L55.8731 14.998C55.5412 14.9174 55.3705 14.832 55.3705 14.595C55.3705 14.3579 55.565 14.2299 55.84 14.2299C56.1956 14.2299 56.4326 14.4006 56.537 14.7088L56.774 14.5333C56.6602 14.2109 56.3426 13.9691 55.8589 13.9691C55.3895 13.9691 55.0766 14.2157 55.0766 14.6092C55.0766 15.017 55.4132 15.1687 55.7404 15.2493L56.0486 15.3204C56.3568 15.3915 56.5607 15.4769 56.5607 15.714C56.5607 15.951 56.3615 16.0743 56.0581 16.0743C55.5981 16.0743 55.3136 15.8183 55.2425 15.5101L55.0102 15.6855C55.1477 16.1312 55.5839 16.3399 56.0486 16.3399ZM57.6793 13.6087V13.1156H57.3663V13.6087H57.6793ZM57.6793 16.2924V14.0165H57.3663V16.2924H57.6793ZM59.0878 16.3446C59.3817 16.3446 59.6046 16.2071 59.7042 16.0411L59.5951 15.7377C59.5192 15.8989 59.3533 16.0459 59.1494 16.0459C58.9502 16.0459 58.7796 15.9558 58.7796 15.6286V14.2583H59.5429V14.0165H58.7796V13.457L58.4714 13.6893V14.0165H58.1015V14.2583H58.4714V15.714C58.4714 16.1265 58.7416 16.3446 59.0878 16.3446ZM60.9031 16.3399C61.3868 16.3399 61.6902 16.1075 61.8514 15.8278L61.6618 15.6049C61.5622 15.8278 61.3631 16.0791 60.9031 16.0791C60.4527 16.0791 60.1445 15.7946 60.1255 15.2256L61.8609 15.2256C61.8657 15.1877 61.8751 15.1308 61.8751 15.0739C61.8751 14.3863 61.4863 13.9691 60.8652 13.9691C60.2488 13.9691 59.8268 14.4148 59.8268 15.1545C59.8268 15.9084 60.2678 16.3399 60.9031 16.3399ZM60.8652 14.2251C61.2824 14.2251 61.5622 14.4859 61.5906 14.998L60.1303 14.998C60.1729 14.4859 60.4479 14.2251 60.8652 14.2251Z" fill="white"/>
<rect x="76.1727" y="7.84725" width="29.6345" height="14.8173" stroke="white" stroke-width="0.296345"/>
<path d="M85.1997 16.7666V16.3351C85.745 16.3067 86.167 16.0079 86.167 15.4769C86.167 14.8937 85.726 14.704 85.2376 14.5902L85.1997 14.5807V13.4001C85.5126 13.4712 85.745 13.6751 85.8588 14.0212L86.1196 13.8126C85.9678 13.4143 85.6407 13.1678 85.1997 13.0967V12.6415H84.9531V13.0729C84.9389 13.0729 84.9294 13.0729 84.9152 13.0729C84.3794 13.0729 83.891 13.3717 83.891 13.9359C83.891 14.4907 84.3178 14.6851 84.7635 14.7894L84.9531 14.832V16.0364C84.5738 15.989 84.1708 15.7756 84.038 15.3015L83.7962 15.5101C83.9811 16.0411 84.4458 16.283 84.9531 16.3256V16.7666H85.1997ZM84.863 14.5001C84.4505 14.4006 84.2182 14.2583 84.2182 13.9122C84.2182 13.5661 84.5264 13.3669 84.9105 13.3669C84.9247 13.3669 84.9389 13.3669 84.9531 13.3669V14.5238L84.863 14.5001ZM85.854 15.4864C85.854 15.861 85.5553 16.0222 85.1997 16.0459L85.1997 14.8889C85.6264 14.998 85.854 15.1355 85.854 15.4864ZM88.924 16.2924V16.0174H87.5727L87.1744 16.0364L87.4968 15.7566L88.118 15.1545C88.4024 14.8795 88.8576 14.4385 88.8576 13.9264C88.8576 13.4428 88.5731 13.0682 87.9567 13.0682C87.2313 13.0682 86.7808 13.5708 86.8472 14.1967L87.1365 14.3816C87.0559 13.7462 87.3593 13.3669 87.9378 13.3669C88.3693 13.3669 88.54 13.6514 88.54 13.9454C88.54 14.32 88.2602 14.6234 87.933 14.9506L86.8283 16.0506V16.2924H88.924ZM90.6005 16.3399C91.4539 16.3399 91.857 15.6239 91.857 14.6993C91.857 13.7842 91.4539 13.0682 90.6005 13.0682C89.747 13.0682 89.3487 13.7842 89.3487 14.6993C89.3487 15.6239 89.747 16.3399 90.6005 16.3399ZM90.6052 16.0459C89.9319 16.0459 89.6711 15.4722 89.6711 14.6993C89.6711 13.9359 89.9319 13.3574 90.6052 13.3574C91.2785 13.3574 91.5346 13.9359 91.5346 14.6993C91.5346 15.4722 91.2785 16.0459 90.6052 16.0459ZM93.5917 16.3399C94.4452 16.3399 94.8482 15.6239 94.8482 14.6993C94.8482 13.7842 94.4452 13.0682 93.5917 13.0682C92.7382 13.0682 92.3399 13.7842 92.3399 14.6993C92.3399 15.6239 92.7382 16.3399 93.5917 16.3399ZM93.5964 16.0459C92.9232 16.0459 92.6624 15.4722 92.6624 14.6993C92.6624 13.9359 92.9232 13.3574 93.5964 13.3574C94.2697 13.3574 94.5258 13.9359 94.5258 14.6993C94.5258 15.4722 94.2697 16.0459 93.5964 16.0459ZM95.7906 16.2924V15.254L96.4259 14.5807L97.5639 16.2924H97.9479L96.6488 14.3579L97.8389 13.1156H97.4453L96.1841 14.448L95.7763 14.8842L95.7906 14.3579V13.1156H95.4776V16.2924H95.7906Z" fill="white"/>
<path d="M85.8822 62.5223V62.0481H84.6636L84.1894 62.0955L84.5593 61.8205L85.0002 61.4317C85.3369 61.152 85.7921 60.711 85.7921 60.1989C85.7921 59.6773 85.4791 59.298 84.839 59.298C84.1088 59.298 83.592 59.7627 83.6062 60.3981L84.0567 60.7205C84.0282 60.1088 84.3222 59.8101 84.7916 59.8101C85.0998 59.8101 85.2326 60.0045 85.2326 60.2321C85.2326 60.5308 85.0145 60.7726 84.7063 61.0713L83.611 62.1145V62.5223H85.8822ZM88.2779 62.5223V61.8063H88.8137V61.3416H88.2779V59.3454H87.7137L86.1584 61.3938V61.8063H87.7468V62.5223H88.2779ZM86.7464 61.3416L87.7468 60.0377V61.3416H86.7464ZM90.5018 62.5223L90.8053 61.7209H92.1471L92.4506 62.5223H93.0385L91.7963 59.3454H91.1799L89.9376 62.5223H90.5018ZM91.3079 60.3981L91.4786 59.8243L91.6493 60.3981L91.9717 61.2563H90.9807L91.3079 60.3981ZM93.8733 63.4042V61.9059C93.9492 62.2615 94.1436 62.5697 94.6035 62.5697C95.1725 62.5697 95.5329 62.1097 95.5329 61.3653C95.5329 60.6209 95.1725 60.161 94.613 60.161C94.1531 60.161 93.9492 60.4692 93.8733 60.8295V60.2131H93.3423V63.4042H93.8733ZM93.8733 61.5076V61.2231C93.8733 60.8438 94.0298 60.5925 94.4044 60.5925C94.7363 60.5925 94.9876 60.8438 94.9876 61.3653C94.9876 61.8869 94.7363 62.1382 94.4044 62.1382C94.0298 62.1382 93.8733 61.8869 93.8733 61.5076ZM96.5034 63.4042V61.9059C96.5793 62.2615 96.7737 62.5697 97.2336 62.5697C97.8026 62.5697 98.1629 62.1097 98.1629 61.3653C98.1629 60.6209 97.8026 60.161 97.2431 60.161C96.7831 60.161 96.5793 60.4692 96.5034 60.8295V60.2131H95.9723V63.4042H96.5034ZM96.5034 61.5076V61.2231C96.5034 60.8438 96.6599 60.5925 97.0344 60.5925C97.3664 60.5925 97.6177 60.8438 97.6177 61.3653C97.6177 61.8869 97.3664 62.1382 97.0344 62.1382C96.6599 62.1382 96.5034 61.8869 96.5034 61.5076ZM99.1335 62.5223V59.3454H98.6024V62.5223H99.1335ZM100.226 59.886V59.3454H99.6952V59.886H100.226ZM100.226 62.5223V60.2131H99.6952V62.5223H100.226ZM101.812 62.5697C102.324 62.5697 102.637 62.3373 102.813 62.0718L102.485 61.7304C102.4 61.9248 102.22 62.1334 101.817 62.1334C101.452 62.1334 101.21 61.9106 101.181 61.4981H102.832C102.841 61.4507 102.851 61.3511 102.851 61.2657C102.851 60.6256 102.466 60.1657 101.774 60.1657C101.125 60.1657 100.674 60.6446 100.674 61.3701C100.674 62.0908 101.125 62.5697 101.812 62.5697ZM101.774 60.5925C102.125 60.5925 102.334 60.7916 102.372 61.1567H101.186C101.229 60.7821 101.447 60.5925 101.774 60.5925ZM104.164 62.5744C104.624 62.5744 104.818 62.2662 104.894 61.9106V62.5223H105.425V59.3454H104.894V60.8343C104.818 60.4739 104.614 60.1657 104.154 60.1657C103.595 60.1657 103.234 60.6256 103.234 61.3701C103.234 62.1145 103.595 62.5744 104.164 62.5744ZM103.78 61.3701C103.78 60.8532 104.031 60.5972 104.363 60.5972C104.737 60.5972 104.894 60.8485 104.894 61.2278V61.517C104.894 61.8964 104.737 62.1429 104.368 62.1429C104.031 62.1429 103.78 61.8916 103.78 61.3701Z" fill="white"/>
<path d="M79.7289 60.0514C79.7111 60.0484 79.6903 60.0484 79.6726 60.0514C79.2636 60.0366 78.9376 59.7017 78.9376 59.2868C78.9376 58.863 79.2784 58.5223 79.7022 58.5223C80.126 58.5223 80.4668 58.866 80.4668 59.2868C80.4638 59.7017 80.1378 60.0366 79.7289 60.0514Z" stroke="white" stroke-width="0.444518" stroke-linecap="round" stroke-linejoin="round"/>
<path d="M79.4236 62.2088C79.8296 62.2769 80.2771 62.2058 80.5912 61.9954C81.0091 61.7169 81.0091 61.2605 80.5912 60.9819C80.2741 60.7715 79.8207 60.7004 79.4147 60.7715" stroke="white" stroke-width="0.444518" stroke-linecap="round" stroke-linejoin="round"/>
<path d="M76.1639 60.0514C76.1816 60.0484 76.2024 60.0484 76.2202 60.0514C76.6291 60.0366 76.9551 59.7017 76.9551 59.2868C76.9551 58.863 76.6143 58.5222 76.1905 58.5222C75.7668 58.5222 75.426 58.866 75.426 59.2868C75.4289 59.7017 75.7549 60.0366 76.1639 60.0514Z" stroke="white" stroke-width="0.444518" stroke-linecap="round" stroke-linejoin="round"/>
<path d="M76.4691 62.2088C76.0631 62.2769 75.6156 62.2058 75.3015 61.9954C74.8836 61.7168 74.8836 61.2605 75.3015 60.9819C75.6186 60.7715 76.072 60.7004 76.478 60.7715" stroke="white" stroke-width="0.444518" stroke-linecap="round" stroke-linejoin="round"/>
<path d="M77.9508 62.2651C77.933 62.2621 77.9123 62.2621 77.8945 62.2651C77.4855 62.2503 77.1595 61.9154 77.1595 61.5005C77.1595 61.0767 77.5003 60.7359 77.9241 60.7359C78.3479 60.7359 78.6887 61.0797 78.6887 61.5005C78.6857 61.9154 78.3597 62.2532 77.9508 62.2651Z" stroke="white" stroke-width="0.444518" stroke-linecap="round" stroke-linejoin="round"/>
<path d="M77.0884 63.1986C76.6706 63.4771 76.6706 63.9335 77.0884 64.2121C77.5626 64.5292 78.339 64.5292 78.8131 64.2121C79.231 63.9335 79.231 63.4771 78.8131 63.1986C78.3419 62.8844 77.5626 62.8844 77.0884 63.1986Z" stroke="white" stroke-width="0.444518" stroke-linecap="round" stroke-linejoin="round"/>
</g>
<defs>
<linearGradient id="paint0_linear_107_208" x1="22.2379" y1="54.0771" x2="22.2379" y2="68.8943" gradientUnits="userSpaceOnUse">
<stop stop-color="#CE9FFC"/>
<stop offset="0.505208" stop-color="#A582F7"/>
<stop offset="1" stop-color="#7367F0"/>
</linearGradient>
<clipPath id="clip0_107_208">
<rect width="113" height="75" fill="white" transform="translate(0.30835 0.734985)"/>
</clipPath>
</defs>
</svg>
