<svg width="168" height="212" viewBox="0 0 168 212" fill="none" xmlns="http://www.w3.org/2000/svg">
<path d="M142.469 67.8725C141.057 66.5003 139.076 65.8768 137.137 66.1956C135.195 66.5132 133.517 67.7326 132.616 69.4824C129.518 75.5025 125.581 81.0348 120.951 85.9253C121.412 82.3925 121.645 78.8386 121.645 75.2752C121.645 68.4377 120.728 61.4016 118.92 54.3596C112.975 31.2297 97.3854 11.669 76.1502 0.693396C74.3014 -0.261846 72.0986 -0.228307 70.2797 0.782833C68.4607 1.79439 67.2694 3.64897 67.1063 5.72343C65.4509 26.7429 54.624 45.866 37.3853 58.2017C37.1571 58.3661 36.9307 58.5325 36.7042 58.6982C36.235 59.0414 35.7928 59.366 35.3796 59.6385C35.315 59.6816 35.2508 59.7255 35.1879 59.7706C24.346 67.533 15.4002 77.8804 9.31641 89.6974C3.13445 101.717 0 114.616 0 128.033C0 134.869 0.91632 141.905 2.7237 148.948C12.2616 186.072 45.6699 211.999 83.9665 211.999C130.263 211.999 167.928 174.332 167.928 128.033C167.928 105.202 158.887 83.8363 142.469 67.8725V67.8725Z" fill="white" fill-opacity="0.02"/>
<circle cx="78.1825" cy="125.273" r="25.0545" fill="#111111"/>
</svg>
