<svg width="17" height="17" viewBox="0 0 17 17" fill="none" xmlns="http://www.w3.org/2000/svg">
<path fill-rule="evenodd" clip-rule="evenodd" d="M0.760162 8.40566C0.760162 5.18895 0.760162 3.5806 1.52668 2.42215C1.86896 1.90485 2.31198 1.46183 2.82929 1.11954C3.98774 0.353027 5.59609 0.353027 8.81279 0.353027C12.0295 0.353027 13.6378 0.353027 14.7963 1.11954C15.3136 1.46183 15.7566 1.90485 16.0989 2.42215C16.8654 3.5806 16.8654 5.18895 16.8654 8.40566C16.8654 11.6224 16.8654 13.2307 16.0989 14.3892C15.7566 14.9065 15.3136 15.3495 14.7963 15.6918C13.6378 16.4583 12.0295 16.4583 8.81279 16.4583C5.59609 16.4583 3.98774 16.4583 2.82929 15.6918C2.31198 15.3495 1.86896 14.9065 1.52668 14.3892C0.760162 13.2307 0.760162 11.6224 0.760162 8.40566ZM12.9816 8.40586C12.9816 10.7083 11.1151 12.5748 8.81265 12.5748C6.51021 12.5748 4.64371 10.7083 4.64371 8.40586C4.64371 6.10342 6.51021 4.23692 8.81265 4.23692C11.1151 4.23692 12.9816 6.10342 12.9816 8.40586ZM8.81265 11.1643C10.3361 11.1643 11.5711 9.92933 11.5711 8.40586C11.5711 6.8824 10.3361 5.64739 8.81265 5.64739C7.28919 5.64739 6.05417 6.8824 6.05417 8.40586C6.05417 9.92933 7.28919 11.1643 8.81265 11.1643ZM13 5.00003C13.5523 5.00003 14 4.55231 14 4.00003C14 3.44774 13.5523 3.00003 13 3.00003C12.4477 3.00003 12 3.44774 12 4.00003C12 4.55231 12.4477 5.00003 13 5.00003Z" fill="white"/>
</svg>
