<svg width="17" height="13" viewBox="0 0 17 13" fill="none" xmlns="http://www.w3.org/2000/svg">
<path d="M11.5212 0.0833759V0.0805664H12.2764L12.5523 0.133946C12.7362 0.168601 12.9033 0.214016 13.0533 0.270205C13.2034 0.326394 13.3486 0.391953 13.489 0.466867C13.6294 0.541781 13.7567 0.618114 13.8709 0.695838C13.9842 0.772634 14.0859 0.854108 14.1759 0.94026C14.265 1.02735 14.4039 1.04983 14.5927 1.00769C14.7815 0.965546 14.9848 0.90701 15.2026 0.832096C15.4205 0.757182 15.6359 0.672898 15.8489 0.579245C16.0619 0.485592 16.1916 0.42613 16.2381 0.400845C16.2836 0.374632 16.3078 0.360585 16.3107 0.358703L16.3136 0.354489L16.3281 0.347465L16.3426 0.340441L16.3571 0.333418L16.3717 0.326394L16.3746 0.32218L16.3789 0.31937L16.3833 0.316561L16.3862 0.312347L16.4007 0.308132L16.4152 0.305323L16.4123 0.326394L16.408 0.347465L16.4007 0.368536L16.3934 0.389607L16.3862 0.403654L16.3789 0.417701L16.3717 0.438772C16.3668 0.45282 16.362 0.471545 16.3571 0.494961C16.3523 0.518378 16.3063 0.612017 16.2192 0.775907C16.132 0.939797 16.0231 1.10602 15.8924 1.27459C15.7617 1.44315 15.6446 1.57051 15.541 1.65667C15.4364 1.74377 15.3672 1.80463 15.3333 1.83929C15.2994 1.87487 15.2583 1.90764 15.2099 1.93762L15.1373 1.98397L15.1227 1.991L15.1082 1.99802L15.1053 2.00224L15.101 2.00504L15.0966 2.00785L15.0937 2.01207L15.0792 2.01909L15.0647 2.02612L15.0618 2.03033L15.0574 2.03314L15.053 2.03595L15.0501 2.04016L15.0472 2.04438L15.0429 2.04719L15.0385 2.05L15.0356 2.05421H15.1082L15.5148 1.96993C15.7859 1.91374 16.0449 1.84585 16.2918 1.76624L16.6839 1.63982L16.7275 1.62577L16.7492 1.61874L16.7638 1.61172L16.7783 1.6047L16.7928 1.59767L16.8073 1.59065L16.8364 1.58644L16.8654 1.58363V1.61172L16.8582 1.61453L16.8509 1.61874L16.848 1.62296L16.8436 1.62577L16.8393 1.62858L16.8364 1.63279L16.8335 1.63701L16.8291 1.63982L16.8248 1.64262L16.8219 1.64684L16.819 1.65105L16.8146 1.65386L16.8073 1.66791L16.8001 1.68196L16.7957 1.68477C16.7938 1.68758 16.7323 1.76717 16.6113 1.92357C16.4903 2.0809 16.4249 2.16049 16.4152 2.16237C16.4056 2.16518 16.392 2.17923 16.3746 2.20452C16.3581 2.23073 16.2555 2.33516 16.0667 2.51777C15.8779 2.70039 15.693 2.86286 15.512 3.00521C15.33 3.14849 15.238 3.32455 15.236 3.53339C15.2331 3.74129 15.222 3.97636 15.2026 4.23856C15.1833 4.50078 15.147 4.78406 15.0937 5.08842C15.0405 5.39279 14.9582 5.73695 14.8468 6.1209C14.7355 6.50485 14.5999 6.87945 14.4402 7.24468C14.2805 7.60991 14.1134 7.93768 13.9392 8.22799C13.7649 8.51831 13.6052 8.76414 13.4599 8.96548C13.3147 9.16682 13.1671 9.35645 13.017 9.53439C12.8669 9.71233 12.6772 9.91274 12.4477 10.1356C12.2173 10.3576 12.0915 10.4793 12.0702 10.5008C12.0479 10.5215 11.953 10.5982 11.7855 10.7312C11.619 10.8651 11.4399 10.999 11.2482 11.133C11.0575 11.266 10.8822 11.3769 10.7225 11.4659C10.5627 11.5549 10.3701 11.6565 10.1445 11.7707C9.91989 11.8859 9.67687 11.9927 9.41547 12.091C9.15407 12.1893 8.87814 12.2806 8.5877 12.3649C8.29725 12.4492 8.01649 12.5148 7.7454 12.5616C7.47433 12.6084 7.16693 12.6482 6.82323 12.681L6.30769 12.7301V12.7372H5.36374V12.7301L5.2403 12.7231C5.15802 12.7184 5.09024 12.7138 5.03699 12.7091C4.98375 12.7044 4.78285 12.6786 4.43431 12.6318C4.08578 12.585 3.81228 12.5382 3.6138 12.4913C3.41534 12.4445 3.12004 12.3555 2.72794 12.2244C2.33584 12.0933 2.00037 11.9608 1.72154 11.8269C1.44368 11.6939 1.26942 11.6096 1.19874 11.5741C1.12903 11.5394 1.05061 11.4963 0.963475 11.4448L0.832774 11.3676L0.829884 11.3633L0.825513 11.3605L0.821156 11.3577L0.818252 11.3535L0.803729 11.3465L0.789207 11.3395L0.786317 11.3353L0.781946 11.3324L0.777589 11.3296L0.774685 11.3254L0.771795 11.3212L0.767424 11.3184H0.760162V11.2903L0.774685 11.2931L0.789207 11.2973L0.854557 11.3043C0.898124 11.309 1.01673 11.3161 1.21035 11.3254C1.404 11.3348 1.60972 11.3348 1.82755 11.3254C2.04539 11.3161 2.26807 11.295 2.49558 11.2622C2.7231 11.2294 2.99177 11.1732 3.30157 11.0936C3.61139 11.014 3.89603 10.9195 4.1555 10.8099C4.41399 10.6994 4.59793 10.617 4.70735 10.5627C4.81577 10.5093 4.98132 10.41 5.204 10.2648L5.53801 10.0471L5.54091 10.0429L5.54527 10.0401L5.54964 10.0373L5.55253 10.0331L5.55544 10.0289L5.55979 10.026L5.56416 10.0232L5.56705 10.019L5.58158 10.0148L5.5961 10.012L5.599 9.99795L5.60336 9.9839L5.60773 9.98109L5.61062 9.97688L5.49444 9.96986C5.41699 9.96518 5.34196 9.96049 5.26935 9.95581C5.19673 9.95113 5.08298 9.93006 4.92807 9.8926C4.77318 9.85513 4.60617 9.79894 4.42705 9.72403C4.24795 9.64911 4.07368 9.56014 3.90425 9.45713C3.73483 9.35412 3.61235 9.26842 3.53683 9.20007C3.46229 9.13262 3.36547 9.03712 3.24639 8.9135C3.12827 8.78896 3.02565 8.66111 2.93851 8.53001C2.85138 8.39891 2.76812 8.24765 2.68874 8.07628L2.56819 7.82062L2.56093 7.79955L2.55367 7.77848L2.54931 7.76443L2.54641 7.75039L2.56819 7.75319L2.58998 7.75741L2.74972 7.77848C2.85623 7.79253 3.02323 7.7972 3.25074 7.79253C3.47826 7.78785 3.63558 7.77848 3.72272 7.76443C3.80985 7.75039 3.8631 7.74102 3.88246 7.73634L3.91151 7.72931L3.94781 7.72229L3.98412 7.71527L3.98702 7.71105L3.99138 7.70824L3.99575 7.70543L3.99864 7.70122L3.9696 7.6942L3.94055 7.68717L3.91151 7.68015L3.88246 7.67313L3.85342 7.6661C3.83406 7.66142 3.80018 7.65205 3.75176 7.63801C3.70336 7.62396 3.57266 7.57245 3.35966 7.48349C3.14667 7.39453 2.97724 7.3079 2.85138 7.22361C2.7252 7.13908 2.60489 7.04664 2.49122 6.94688C2.37795 6.84574 2.25355 6.71556 2.118 6.55637C1.98246 6.39717 1.86145 6.21221 1.75494 6.0015C1.64845 5.79079 1.56858 5.58945 1.51532 5.39746C1.46228 5.20661 1.42729 5.01149 1.41078 4.8145L1.38462 4.51951L1.39914 4.52232L1.41367 4.52653L1.42819 4.53356L1.44271 4.54058L1.45723 4.5476L1.47176 4.55463L1.69685 4.65296C1.84693 4.71852 2.03329 4.77471 2.25596 4.82153C2.47865 4.86835 2.61176 4.89411 2.65533 4.89879L2.72068 4.90581H2.85138L2.84849 4.9016L2.84412 4.89879L2.83976 4.89598L2.83686 4.89176L2.83397 4.88755L2.82959 4.88474L2.82524 4.88193L2.82233 4.87772L2.80781 4.87069L2.79329 4.86367L2.7904 4.85945L2.78603 4.85664L2.78167 4.85383L2.77877 4.84962L2.76424 4.8426L2.74972 4.83557L2.74683 4.83136C2.74393 4.82948 2.70229 4.79951 2.62192 4.74146C2.54253 4.68246 2.45927 4.60614 2.37214 4.51249C2.28501 4.41883 2.19787 4.3205 2.11074 4.21749C2.02344 4.11425 1.94569 4.00379 1.87838 3.88738C1.81062 3.77033 1.73897 3.62141 1.66345 3.44068C1.58891 3.26087 1.53227 3.07966 1.49354 2.89705C1.45482 2.71443 1.43304 2.53416 1.42819 2.35623C1.42335 2.17829 1.42819 2.02612 1.44271 1.89969C1.45723 1.77326 1.48628 1.63045 1.52985 1.47125C1.57341 1.31205 1.63635 1.14348 1.71864 0.965546L1.84208 0.698647L1.84934 0.677576L1.8566 0.656505L1.86097 0.653696L1.86386 0.649482L1.86676 0.645267L1.87112 0.642458L1.87549 0.645267L1.87838 0.649482L1.88129 0.653696L1.88564 0.656505L1.89001 0.659315L1.8929 0.663529L1.89581 0.667743L1.90017 0.670552L1.90743 0.6846L1.91469 0.698647L1.91906 0.701457L1.92195 0.705671L2.118 0.91638C2.2487 1.05685 2.40361 1.21372 2.58271 1.38696C2.76183 1.56021 2.86106 1.65011 2.88042 1.65667C2.8998 1.66416 2.92399 1.68569 2.95303 1.72129C2.98208 1.75594 3.0789 1.83882 3.24348 1.96993C3.40808 2.10103 3.62349 2.25322 3.88972 2.42646C4.15598 2.59971 4.45126 2.77062 4.77559 2.93919C5.09993 3.10776 5.44846 3.25993 5.82119 3.39573C6.19394 3.53152 6.45534 3.62048 6.6054 3.66262C6.75547 3.70477 7.01202 3.75861 7.37508 3.82417C7.73814 3.88973 8.01165 3.93187 8.19559 3.95059C8.37955 3.96932 8.50541 3.98009 8.57318 3.9829L8.67483 3.98571L8.67194 3.96464L8.66757 3.94357L8.63853 3.76798C8.61917 3.65092 8.60948 3.48703 8.60948 3.27632C8.60948 3.06561 8.62643 2.8713 8.66031 2.69336C8.6942 2.51542 8.74503 2.33516 8.81279 2.15254C8.88057 1.96993 8.94689 1.82336 9.01175 1.71286C9.07759 1.60329 9.16375 1.47827 9.27025 1.3378C9.37675 1.19733 9.51472 1.05218 9.68413 0.902333C9.85357 0.75249 10.0472 0.619041 10.265 0.501985C10.4829 0.384929 10.6838 0.295953 10.8677 0.235087C11.0517 0.17422 11.2066 0.13441 11.3324 0.115685C11.4583 0.0969596 11.5212 0.0861853 11.5212 0.0833759Z" fill="white"/>
</svg>
